<?xml version="1.0" encoding="UTF-8" standalone="no"?>
<svg
   xmlns:dc="http://purl.org/dc/elements/1.1/"
   xmlns:cc="http://creativecommons.org/ns#"
   xmlns:rdf="http://www.w3.org/1999/02/22-rdf-syntax-ns#"
   xmlns:svg="http://www.w3.org/2000/svg"
   xmlns="http://www.w3.org/2000/svg"
   xmlns:sodipodi="http://sodipodi.sourceforge.net/DTD/sodipodi-0.dtd"
   xmlns:inkscape="http://www.inkscape.org/namespaces/inkscape"
   width="124.81823mm"
   height="129.42973mm"
   viewBox="0 0 124.81823 129.42973"
   version="1.1"
   id="svg8"
   inkscape:version="1.0 (4035a4f, 2020-05-01)"
   sodipodi:docname="bayesian-reasoning_3.svg"
   inkscape:export-filename="bayesian-reasoning_3.png"
   inkscape:export-xdpi="150"
   inkscape:export-ydpi="150">
  <defs
     id="defs2">
    <rect
       x="98.095116"
       y="30.305807"
       width="46.721106"
       height="20.452117"
       id="rect89" />
  </defs>
  <sodipodi:namedview
     id="base"
     pagecolor="#ffffff"
     bordercolor="#666666"
     borderopacity="1.0"
     inkscape:pageopacity="0.0"
     inkscape:pageshadow="2"
     inkscape:zoom="1.0550064"
     inkscape:cx="184.59807"
     inkscape:cy="227.96884"
     inkscape:document-units="mm"
     inkscape:current-layer="layer1"
     inkscape:document-rotation="0"
     showgrid="false"
     inkscape:window-width="1280"
     inkscape:window-height="800"
     inkscape:window-x="0"
     inkscape:window-y="0"
     inkscape:window-maximized="0"
     fit-margin-top="10"
     fit-margin-left="10"
     fit-margin-right="10"
     fit-margin-bottom="10" />
  <metadata
     id="metadata5">
    <rdf:RDF>
      <cc:Work
         rdf:about="">
        <dc:format>image/svg+xml</dc:format>
        <dc:type
           rdf:resource="http://purl.org/dc/dcmitype/StillImage" />
        <dc:title></dc:title>
      </cc:Work>
    </rdf:RDF>
  </metadata>
  <g
     inkscape:label="Layer 1"
     inkscape:groupmode="layer"
     id="layer1"
     transform="translate(-57.514928,2.8505955)">
    <text
       xml:space="preserve"
       id="text87"
       style="font-style:normal;font-weight:normal;font-size:5.64444000000000035px;line-height:1.25;font-family:sans-serif;white-space:pre;shape-inside:url(#rect89);fill:#000000;fill-opacity:1;stroke:none;"
       transform="translate(35.896678,-27.550276)"><tspan
         x="98.095703"
         y="35.456235"><tspan
           style="font-style:normal;font-variant:normal;font-weight:normal;font-stretch:normal;font-family:'Comic Sans MS';-inkscape-font-specification:'Comic Sans MS'">Well, about
</tspan></tspan><tspan
         x="98.095703"
         y="42.819092"><tspan
           style="font-style:normal;font-variant:normal;font-weight:normal;font-stretch:normal;font-family:'Comic Sans MS';-inkscape-font-specification:'Comic Sans MS'">one in a million.</tspan></tspan></text>
    <path
       style="fill:none;stroke:#000000;stroke-width:0.264583px;stroke-linecap:butt;stroke-linejoin:miter;stroke-opacity:1"
       d="m 145.60372,20.477506 c -2.61555,5.177496 -7.96951,7.616583 -14.10353,9.275604"
       id="path117"
       sodipodi:nodetypes="cc" />
    <path
       d="m 119.16756,29.768412 c -1.80886,-0.621268 -3.15624,-0.160152 -4.87829,0.505352 -1.93297,0.97645 -3.58099,2.384398 -4.97153,4.036136 -3.07017,3.646848 -2.27569,2.444621 -3.78359,5.041797 -1.14823,2.16004 -1.59788,4.37103 -0.86947,6.755617 0.12962,0.424317 0.32761,0.824658 0.49141,1.236988 0.24972,0.382344 0.4501,0.801904 0.74916,1.147029 1.39437,1.609175 3.8175,2.809799 5.8051,3.459155 0.57992,0.18946 1.17802,0.317907 1.76703,0.476861 1.87438,0.400227 3.71719,0.411472 5.59442,0.02876 0.64943,-0.1324 1.30715,-0.262329 1.92174,-0.510466 1.52233,-0.614624 2.21381,-1.285737 3.48372,-2.268315 2.33616,-2.235898 4.70165,-4.719703 5.51743,-7.930224 0.30407,-1.196641 0.24248,-1.479351 0.26605,-2.684703 -0.37955,-2.175883 -1.35374,-4.26901 -2.91569,-5.856126 -0.30703,-0.311978 -0.65545,-0.580332 -0.98317,-0.870498 -1.68483,-1.329888 -3.78469,-1.869826 -5.84175,-2.324973 0,0 -2.09431,2.773331 -2.09431,2.773331 v 0 c 2.06145,0.316164 4.09531,0.792152 5.76306,2.126996 0.31535,0.28009 0.65205,0.53785 0.94605,0.840272 1.16747,1.200925 2.10994,2.781837 2.52338,4.410336 0.10659,0.419841 0.14028,0.854888 0.21042,1.282333 -0.0351,1.468188 -0.11052,2.49011 -0.70072,3.876294 -0.20184,0.474035 -0.90203,0.894453 -0.71041,1.372708 0.15672,0.391163 1.17734,-1.203655 0.90797,-0.87961 -0.41178,0.495361 -0.89121,0.930339 -1.33682,1.395505 -1.23127,1.005547 -1.86889,1.675604 -3.36074,2.298409 -0.60162,0.251161 -1.24532,0.394695 -1.88427,0.524214 -1.81173,0.367247 -3.63724,0.296045 -5.44771,-0.02696 -0.57903,-0.152826 -1.16864,-0.270073 -1.73709,-0.458483 -2.03679,-0.675087 -4.12847,-1.82389 -5.47027,-3.544549 -0.26925,-0.345281 -0.45749,-0.746704 -0.68624,-1.120055 -0.15174,-0.398058 -0.3378,-0.784675 -0.45522,-1.194173 -0.63994,-2.231954 -0.16712,-4.462426 0.91967,-6.466417 0.27452,-0.450093 0.54904,-0.900187 0.82356,-1.35028 -0.34804,0.376629 -1.30245,1.572911 -1.04414,1.129893 0.27767,-0.476221 0.71826,-0.837467 1.10353,-1.231739 1.05618,-1.080865 2.23262,-2.01722 3.60128,-2.672704 1.40205,-0.521042 2.83945,-1.032725 4.23453,-0.19948 0,0 2.54192,-3.12823 2.54192,-3.12823 z"
       id="path130"
       style="fill:#000000;stroke-width:0.264583" />
    <path
       d="m 115.38437,54.128724 c 0.22021,1.870249 -0.0326,3.776204 -0.23898,5.638958 -0.53886,4.104733 -1.25935,8.181438 -2.02135,12.249685 -0.90652,4.475054 -2.07169,8.887774 -3.44185,13.241594 -1.20033,3.529978 -2.70535,6.935938 -4.19912,10.347163 -0.86963,2.044279 -1.7043,4.098801 -2.62766,6.119356 -0.30927,0.62307 -0.59391,1.26415 -0.93111,1.87322 -0.19526,0.35268 -0.39922,0.60774 -0.4895,1.00263 0.0514,0.0878 0.0804,0.19332 0.15426,0.26329 0.30634,0.29032 1.10231,0.35105 1.51858,0.43842 0.3681,0.0668 0.73588,0.1323 1.10515,0.1894 0.0816,0.0418 0.0951,0.0341 0.0275,0.0376 0.8628,-1.16343 1.7256,-2.32687 2.58839,-3.4903 0,0 -2.38431,3.73305 -2.38431,3.73305 v 0 c 1.1233,-1.4783 4.05509,-2.91608 2.46666,-3.75297 -0.37766,-0.1574 -0.81143,-0.0405 -1.20771,-0.14958 -0.0968,-0.0171 -1.13387,-0.21959 -1.14164,-0.22746 -0.009,-0.01 0.0213,-0.0161 0.032,-0.0242 0.34966,-0.86423 0.84132,-1.670957 1.15474,-2.552279 0.85188,-1.944724 1.59747,-3.930972 2.3818,-5.903457 1.34448,-3.29856 2.71819,-6.587416 3.77419,-9.994069 1.3846,-4.36368 2.59762,-8.781687 3.43625,-13.286372 0.81025,-4.212519 1.56221,-8.436094 2.39699,-12.643956 0.27993,-2.056712 0.56897,-4.114369 0.72172,-6.184712 0,0 -3.07501,3.075003 -3.07501,3.075003 z"
       id="path166"
       style="fill:#000000;stroke-width:0.264583" />
    <path
       d="m 111.19872,80.303349 c 0.53566,1.062398 0.73101,2.266572 0.90654,3.43086 0.22262,1.476717 0.23105,1.790168 0.37264,3.28761 0.31291,3.094325 0.52953,6.196007 0.75159,9.297759 0.0829,1.678374 0.28957,3.344918 0.48813,5.012072 0.0892,0.80841 0.21359,1.61077 0.28173,2.42166 -0.0318,0.33099 0.0959,0.61781 0.17875,0.9272 0.0275,0.30592 0.26807,0.38604 0.53833,0.43874 0.34123,0.10796 0.69661,0.1505 1.04822,0.20891 0.17352,0.005 0.34533,0.0534 0.5188,0.0508 0.11189,0.004 0.22306,-0.004 0.335,0.002 0.11193,0.0389 -0.21042,-0.17903 0.0215,0.0194 0,0 2.03035,-2.38703 2.03035,-2.38703 v 0 c -0.0407,-0.0587 -0.11031,-0.19047 -0.20916,-0.17093 -0.1128,0.007 -0.22494,0.002 -0.3377,0.005 -0.17453,-0.004 -0.34993,0.0298 -0.52491,0.008 -0.34263,-0.012 -0.6844,-0.0525 -1.0101,-0.16545 -0.24661,-0.099 -0.21072,-0.009 -0.28727,-0.26498 -0.0951,-0.27141 -0.18452,-0.53845 -0.20173,-0.82985 -0.14705,-0.76192 -0.30944,-1.52097 -0.41537,-2.290506 -0.29138,-1.559832 -0.60768,-3.115757 -0.77785,-4.695547 -0.38867,-3.032329 -0.63163,-6.079003 -0.92235,-9.12168 -0.14836,-1.628976 -0.16329,-1.742252 -0.29363,-3.377321 -0.0187,-0.234969 -0.18325,-2.446756 -0.2209,-2.808203 -0.0629,-0.603843 -0.0974,-0.722879 -0.20385,-1.240131 0,0 -2.06671,2.241227 -2.06671,2.241227 z"
       id="path176"
       style="fill:#000000;stroke-width:0.264583" />
    <path
       d="m 116.81527,54.697155 c 0.38156,0.104896 0.76029,0.22216 1.12695,0.371109 0.79502,0.297572 1.49245,0.768353 2.129,1.321875 1.02524,0.926965 1.80417,2.075762 2.60349,3.192465 0.82998,1.100553 1.643,2.212676 2.31822,3.415784 0.60517,1.091821 0.86872,2.315464 1.09968,3.529428 0.17561,1.175562 0.38203,2.354535 0.36123,3.546689 -0.0448,0.234712 0.0147,0.531053 -0.11788,0.748183 -0.0222,0.03633 -0.11943,0.120933 -0.0926,0.08787 1.84983,-2.281992 1.83129,-2.259219 1.35316,-1.640174 -0.22089,0.129842 -0.43806,0.01154 -0.64575,-0.08195 -0.23923,-0.149916 -0.47788,-0.299273 -0.73538,-0.415613 0,0 -1.41695,1.779048 -1.41695,1.779048 v 0 c 0.25351,0.126862 0.48086,0.295558 0.72622,0.436975 0.25605,0.110887 0.49843,0.254751 0.78858,0.22093 1.59564,-0.231371 1.73514,-1.581481 1.63636,-2.643886 -0.12561,-1.156751 -0.31004,-2.306312 -0.49091,-3.455419 -0.22663,-1.241801 -0.45697,-2.507924 -1.12647,-3.601349 -0.72038,-1.179934 -1.5684,-2.266001 -2.36204,-3.396099 -0.42611,-0.576205 -0.85409,-1.150136 -1.28871,-1.719935 -0.13765,-0.180454 -0.72172,-0.955834 -0.87638,-1.136661 -0.12862,-0.150378 -0.27238,-0.287115 -0.40857,-0.430675 -0.61722,-0.602753 -1.29236,-1.120063 -2.07655,-1.49121 -0.35539,-0.182732 -0.73968,-0.294267 -1.08869,-0.48918 0,0 -1.41598,1.851787 -1.41598,1.851787 z"
       id="path198"
       style="fill:#000000;stroke-width:0.264583" />
    <path
       d="m 128.63913,61.988341 c 0.51595,0.334113 0.99512,0.720362 1.51545,1.048343 0.56523,0.39171 1.19794,0.670578 1.77595,1.042098 0.31771,0.213929 0.64486,0.408099 0.97958,0.593773 0.0706,0.07748 0.24227,0.08611 0.29825,0.175196 0.0599,0.0621 0.10444,0.135967 0.14977,0.208714 0,0 1.54517,-1.740911 1.54517,-1.740911 v 0 c -0.055,-0.07514 -0.11009,-0.150444 -0.15679,-0.231222 -0.11619,-0.134683 -0.24158,-0.154649 -0.41071,-0.203237 -0.35829,-0.138985 -0.66348,-0.361915 -1.00756,-0.52986 -0.61049,-0.310321 -1.25257,-0.570367 -1.81128,-0.972685 -0.4829,-0.350625 -0.99206,-0.68766 -1.36477,-1.161767 0,0 -1.51306,1.771558 -1.51306,1.771558 z"
       id="path214"
       style="fill:#000000;stroke-width:0.264583" />
    <path
       d="m 134.75923,63.332093 c -0.85875,0.922698 -1.88666,1.668391 -2.90038,2.409553 -1.23205,0.883195 -2.49922,1.713576 -3.81318,2.469353 -1.13769,0.630053 -2.35202,1.104837 -3.55368,1.596221 -0.43776,0.180525 -0.87125,0.370951 -1.30772,0.554535 0,0 -1.17484,1.774103 -1.17484,1.774103 v 0 c 0.45095,-0.227002 0.90488,-0.447699 1.36595,-0.653638 1.20117,-0.533632 2.43939,-0.988697 3.59728,-1.61604 1.32215,-0.793745 2.61765,-1.632675 3.8731,-2.528586 0.91938,-0.660318 1.85706,-1.305152 2.71308,-2.046642 0,0 1.20039,-1.958859 1.20039,-1.958859 z"
       id="path216"
       style="fill:#000000;stroke-width:0.264583" />
    <path
       d="m 130.04906,60.743548 c -0.44758,0.469879 -1.01628,0.805526 -1.55974,1.150559 -0.89803,0.570158 -0.70133,0.444854 -1.62566,1.021519 -1.45812,0.896795 -2.90065,1.820593 -4.28377,2.829909 -0.78583,0.608926 -1.60477,1.172795 -2.47365,1.656213 -0.55411,0.285977 -1.12569,0.5373 -1.70002,0.779626 -0.22845,0.09689 -0.45865,0.189508 -0.68899,0.281773 0,0 -1.24195,1.887247 -1.24195,1.887247 v 0 c 0.22834,-0.13475 0.46502,-0.250211 0.71182,-0.348277 0.59244,-0.227565 1.16447,-0.507867 1.73613,-0.781811 0.92145,-0.531326 1.7704,-1.181161 2.61372,-1.826681 1.39682,-1.065353 2.83766,-2.076072 4.35181,-2.968948 0.97324,-0.578652 1.97965,-1.101595 2.94301,-1.694691 0,0 1.21729,-1.986438 1.21729,-1.986438 z"
       id="path218"
       style="fill:#000000;stroke-width:0.264583" />
    <path
       d="m 116.36209,70.392423 c 0.48771,-0.0093 0.97547,0.10591 1.44313,0.235304 0.50611,0.164079 0.99517,0.374486 1.4943,0.557295 0.45352,0.187381 0.91167,0.364887 1.38241,0.504343 0.26462,0.07402 0.52405,0.166175 0.7925,0.225719 0.24877,0.02352 0.49118,0.05373 0.73516,0.108376 0.1181,0.05709 0.24014,0.120674 0.31654,0.229809 0,0 1.51071,-1.771756 1.51071,-1.771756 v 0 c -0.13736,-0.106235 -0.28361,-0.200998 -0.43264,-0.290052 -0.24537,-0.05658 -0.48508,-0.114003 -0.73869,-0.117861 -0.27607,-0.04225 -0.53752,-0.135914 -0.81255,-0.178514 -0.48189,-0.09482 -0.93651,-0.256353 -1.38142,-0.464289 -0.5084,-0.189962 -1.01512,-0.37657 -1.53687,-0.52951 -0.46603,-0.137991 -0.92878,-0.283755 -1.40155,-0.39592 0,0 -1.37103,1.887056 -1.37103,1.887056 z"
       id="path222"
       style="fill:#000000;stroke-width:0.264583" />
    <path
       d="m 117.8689,53.76208 c -0.40471,5.29e-4 -0.81349,-0.0581 -1.21644,0.0097 -0.45351,0.07627 -0.59909,0.159462 -1.05041,0.329494 -0.20641,0.109791 -0.42204,0.203769 -0.61923,0.329374 -0.38898,0.247788 -0.88724,0.657614 -1.19207,1.004851 -1.27277,1.449882 -1.6962,1.870025 -2.42949,3.328384 -0.22806,0.572135 -0.48351,1.198425 -0.44567,1.831697 0.0382,0.639564 0.32594,1.130721 0.65442,1.651267 0.7022,0.922087 1.68839,1.472486 2.75877,1.857479 0.88265,0.312946 1.81247,0.436073 2.73503,0.565795 0.5668,0.07456 1.13767,0.104373 1.70712,0.149879 0.2863,0.01754 0.57333,0.01101 0.85996,0.0082 0.25141,-0.0019 0.50279,0.0055 0.7542,0.0063 0.17345,5.29e-4 0.3474,0.0019 0.52062,0.01225 0.10734,0.0046 0.22173,-0.02307 0.32524,0.01159 1.53106,-2.081057 2.08322,-1.837516 1.15707,-1.922106 -0.51093,0.607111 -1.05061,1.191144 -1.53278,1.821331 -0.0274,0.03579 0.20654,0.280985 0.23902,0.248698 1.62827,-1.618954 1.65575,-0.989923 1.58698,-1.866336 -0.0197,-0.07225 -0.029,-0.155909 -0.10099,-0.202542 -0.83952,-0.543549 -1.45775,1.515216 -1.67443,1.84871 -0.0164,0.02529 0.14031,0.421929 0.1462,0.437478 0.0408,0.05002 0.0671,0.116814 0.1225,0.150056 0.06,0.03603 0.15628,0.09696 0.20473,0.04646 0.7729,-0.805694 2.01672,-1.428877 1.34585,-2.356909 -0.91611,-0.59885 -2.55266,2.023753 -1.45027,1.977168 0.0639,-0.0027 0.12085,-0.04205 0.18128,-0.06307 0.51499,-0.619638 1.07202,-1.206619 1.54496,-1.858915 0.10905,-0.1504 -0.30648,-0.46791 -0.44175,-0.329025 -1.68361,1.728581 -1.88046,1.105884 -1.50153,2.016691 0.0658,0.03868 0.12446,0.09392 0.19756,0.11603 0.0887,0.02683 0.29599,0.01008 0.36657,-0.07005 0.53069,-0.60248 1.05969,-1.209259 1.5332,-1.85765 0.0344,-0.04715 -0.0163,-0.122692 -0.0552,-0.166214 -0.0509,-0.05698 -0.13168,-0.07762 -0.19752,-0.116432 -0.0686,0.01217 -0.15925,-0.01537 -0.20567,0.03652 -0.53939,0.603046 -1.04865,1.234781 -1.51976,1.892548 -0.0987,0.137795 0.1201,0.443225 0.31836,0.44476 0.0627,5.29e-4 0.11468,-0.05061 0.17202,-0.07592 0.47757,-0.641871 1.02682,-1.236186 1.43272,-1.925619 0.10287,-0.174725 -0.31518,-0.237974 -0.56729,-0.151373 -0.13037,0.04478 -0.25707,0.11806 -0.35059,0.219334 -1.68201,1.821434 -1.60571,1.098918 -1.62435,2.218275 0.15949,0.253531 0.43029,0.370776 0.65791,0.09142 0.51432,-0.631246 1.03453,-1.262454 1.4738,-1.948048 0.0461,-0.07202 -0.0102,-0.18374 -0.0669,-0.247724 -0.0645,-0.07271 -0.17571,-0.08319 -0.26356,-0.124791 -1.00307,0.385985 -0.61254,0.178547 -1.80364,2.032575 -0.0488,0.07598 0.0487,0.189833 0.12271,0.241551 0.19101,0.133432 0.42545,0.05485 0.56367,-0.101423 0.5427,-0.613558 1.04037,-1.265512 1.56056,-1.898269 0.0685,-0.202255 0.13482,-0.434993 0.0317,-0.641294 -0.0425,-0.08503 -0.22544,-0.286515 -0.35601,-0.150395 -0.56712,0.591217 -1.03839,1.267429 -1.55759,1.901143 0.0177,0.09131 0.009,0.192095 0.0531,0.273915 0.0912,0.168796 0.52074,0.422526 0.69787,0.227213 1.63368,-1.801436 1.81306,-1.141655 1.43727,-2.109877 -0.19731,-0.224195 -0.0785,-0.141631 -0.35601,-0.248436 0,0 -1.37778,1.823823 -1.37778,1.823823 v 0 c 0.12955,-0.03177 0.0733,-0.04779 0.16432,0.06177 -0.0811,0.816285 -0.0394,0.14296 1.36398,-1.422379 0.0402,-0.04481 -0.0621,0.10876 -0.11315,0.140684 -0.0525,0.03288 -0.22133,0.0525 -0.24165,-0.05634 -0.0129,-0.06895 0.0266,-0.137755 0.0398,-0.206631 -0.4332,0.485642 -1.53932,2.017553 -1.37244,1.388538 0.004,-0.014 0.0311,0.01106 0.0357,0.02479 0.0548,0.161935 -0.0387,0.332245 -0.10835,0.46945 0.42416,-0.487418 0.84351,-0.979054 1.27246,-1.462252 0.0509,-0.05736 -0.0968,0.119423 -0.13789,0.184209 -0.026,0.04097 -0.0193,0.108802 -0.0622,0.131535 -0.0264,0.01402 -0.0144,-0.05802 -0.0217,-0.08703 -0.44252,0.490392 -0.88503,0.980784 -1.32755,1.471179 -0.047,0.05103 0.0834,-0.110974 0.12505,-0.16646 0.0988,-0.11003 0.0639,-0.105177 0.0716,0.07788 0.46756,-0.469288 0.86885,-1.000659 1.32203,-1.483849 0.0853,-0.09094 -0.25741,0.506714 -0.2308,0.240003 0.13205,-0.711178 0.087,-0.328101 -1.12872,1.172761 -0.047,0.05802 0.37023,-0.313897 0.40117,-0.328195 0.0148,-0.0068 0.0211,0.02479 0.0316,0.03717 0.4631,-0.543873 0.92621,-1.087747 1.38931,-1.63162 -0.005,0.04904 -0.0138,0.09783 -0.0162,0.147106 -0.002,0.0355 0.0167,0.07353 0.004,0.106587 -0.007,0.01852 -0.0255,-0.03482 -0.0241,-0.0547 0.003,-0.0516 0.0732,-0.188055 0.0377,-0.150495 -1.36619,1.443606 -1.60196,2.260542 -1.35408,1.461699 -0.004,-0.0241 0.006,-0.05754 -0.0133,-0.07236 -0.0132,-0.01 -0.0424,0.05086 -0.0316,0.03831 0.46081,-0.536022 0.91284,-1.079693 1.38165,-1.608733 0.0323,-0.03649 -0.04,0.08996 -0.0699,0.128482 -0.20812,0.268197 -0.0205,-0.0333 -0.0983,0.09493 0.58074,-0.465455 0.33875,-0.274688 -1.3723,1.566524 -0.0345,0.03718 0.0627,-0.193011 0.0448,-0.145513 -0.26285,0.698249 -0.86077,1.035571 1.35153,-1.507381 -0.0242,0.0365 -0.0506,0.07169 -0.0727,0.109484 -0.0127,0.02164 -0.006,0.05288 -0.0219,0.07195 -0.46358,0.5432 -1.73168,2.242521 -1.43005,1.595228 0.008,-0.01786 0.0267,-0.02904 0.04,-0.04356 0.0523,0.07944 0.0765,0.09146 0.0669,0.202078 -0.004,0.04334 -0.0673,0.156731 -0.0375,0.124989 0.49174,-0.524751 0.93252,-1.096298 1.43232,-1.613382 0.0302,-0.03128 0.0291,0.09734 0.001,0.130501 -0.0186,0.02188 -0.0487,-0.03034 -0.0731,-0.04551 -0.0167,-0.06233 -0.0441,-0.12273 -0.0502,-0.186971 -0.006,-0.0673 0.0601,-0.251028 0.0131,-0.202393 -1.94521,2.01472 -0.93359,2.204588 -1.53885,1.485281 -0.0148,-0.01757 -0.0548,0.176364 -0.0362,0.05858 -0.54968,0.515847 -2.00591,1.885127 1.48856,-1.651982 0.005,-0.0047 0.0692,0.128775 0.11736,0.08433 -0.49714,0.577014 -0.99427,1.154028 -1.4914,1.731042 -0.0153,-0.07769 0.0357,-0.04269 0.0975,-0.0508 0.4788,-0.637352 0.95761,-1.274707 1.43642,-1.912059 -0.001,0.0011 -0.003,0.0019 -0.004,0.0028 -0.11086,0.03162 -0.22871,0.0092 -0.34207,0.01156 -0.17929,0.0098 -0.3592,0.01172 -0.5387,0.01236 -0.25553,0.0013 -0.511,0.0091 -0.76652,0.0093 -0.29036,-5.29e-4 -0.58088,-0.0016 -0.87098,0.01291 -0.59185,0.03093 -1.18521,0.02312 -1.77641,-0.01897 -0.92433,-0.07554 -1.83858,-0.239501 -2.73028,-0.497152 -1.06439,-0.338156 -1.98543,-0.830268 -2.67458,-1.738701 -0.0968,-0.157118 -0.21106,-0.304705 -0.29029,-0.471353 -0.45674,-0.96062 -0.23693,-1.882981 0.17164,-2.811282 0.10566,-0.203941 0.20034,-0.41396 0.31699,-0.611823 0.12566,-0.213143 0.61324,-0.759034 0.40892,-0.61949 -0.30979,0.211566 -0.53227,0.535236 -0.74149,0.846616 -0.14201,0.211363 0.34661,-0.374303 0.53743,-0.542919 0.18063,-0.159616 0.37219,-0.308094 0.5743,-0.43946 0.17873,-0.116173 0.37628,-0.200454 0.56442,-0.300681 0.67342,-0.22154 1.31454,-0.38205 2.01477,-0.174545 0,0 1.38769,-1.84512 1.38769,-1.84512 z"
       id="path228"
       style="fill:#000000;stroke-width:0.264583" />
    <path
       d="m 121.69812,62.48126 c 0.10846,0.06394 0.18056,0.172341 0.25149,0.273055 0.10388,0.160462 0.21168,0.318365 0.32685,0.470937 0.0917,0.124584 0.20094,0.233027 0.31329,0.338513 0.0967,0.09534 0.19823,0.185801 0.30072,0.274863 0.10034,0.08682 0.18255,0.191352 0.26814,0.292047 0.1115,0.117001 0.22134,0.235611 0.33295,0.352533 0.0914,0.09478 0.18616,0.186153 0.27773,0.280742 0.0468,0.05135 0.10507,0.0918 0.14981,0.14497 0.003,0.0046 0.006,0.0091 0.009,0.01368 0,0 0.238,-0.273354 0.238,-0.273354 v 0 c -0.004,-0.0045 -0.009,-0.0089 -0.0132,-0.01344 -0.0512,-0.04728 -0.11275,-0.08245 -0.1639,-0.130074 -0.0963,-0.08898 -0.19101,-0.179647 -0.28597,-0.270013 -0.11442,-0.113403 -0.2235,-0.232003 -0.32858,-0.35411 -0.0872,-0.101849 -0.16405,-0.214456 -0.26886,-0.299654 -0.10488,-0.08535 -0.20402,-0.177107 -0.30377,-0.268335 -0.11031,-0.104529 -0.21953,-0.2104 -0.31464,-0.329356 -0.11931,-0.148358 -0.23067,-0.303147 -0.32689,-0.46763 -0.0708,-0.109159 -0.13968,-0.221009 -0.22998,-0.315545 0,0 -0.2325,0.28017 -0.2325,0.28017 z"
       id="path234"
       style="fill:#000000;stroke-width:0.264583" />
    <path
       transform="matrix(0.26458333,0,0,0.26458333,57.514928,-2.8505955)"
       id="path238"
       d="m 265.90592,266.24915 c -0.16842,-1.25422 -0.72457,-4.80188 -1.23588,-7.88368 -0.51131,-3.08181 -0.97552,-5.89648 -1.03157,-6.25483 -0.0924,-0.59041 0.1817,-0.8105 2.92056,-2.34556 1.90769,-1.06921 3.18252,-1.9611 3.4564,-2.41816 0.23866,-0.39827 0.55326,-0.69074 0.69911,-0.64993 0.14585,0.0408 1.67252,0.99155 3.3926,2.11273 1.72008,1.12119 4.98787,3.13386 7.26175,4.47261 l 4.13434,2.43409 -2.48273,1.84171 c -4.52255,3.35487 -16.11863,10.97143 -16.70381,10.97143 -0.0575,0 -0.24235,-1.02618 -0.41077,-2.28041 z"
       style="fill:#000000;stroke-width:0.260618" />
    <path
       transform="matrix(0.26458333,0,0,0.26458333,57.514928,-2.8505955)"
       id="path240"
       d="m 249.25075,275.87994 c -0.19195,-0.0577 -0.79396,-0.15969 -1.33781,-0.22654 -2.23308,-0.27451 -5.98264,-1.20857 -7.73601,-1.92712 -1.42854,-0.58543 -4.64776,-1.77333 -5.66426,-2.09011 l -0.66204,-0.20632 1.82535,-1.23535 c 1.00394,-0.67944 3.73608,-2.67424 6.07142,-4.43288 5.84755,-4.40354 8.89957,-6.54597 13.19997,-9.26602 1.76531,-1.11657 2.46267,-1.50124 2.52376,-1.39209 0.14001,0.2502 0.88544,3.28666 1.26247,5.14262 0.54276,2.67182 1.51042,9.23101 1.51042,10.23824 0,0.37725 -0.0143,0.39079 -0.2984,0.28277 -0.16412,-0.0624 -0.31462,-0.11345 -0.33446,-0.11345 -0.0198,0 -0.35311,0.40986 -0.74063,0.91079 -0.68434,0.88462 -0.73572,0.92358 -1.78858,1.35604 -0.59621,0.24489 -2.51386,1.03906 -4.26147,1.76483 -1.7476,0.72576 -3.18719,1.31507 -3.1991,1.30957 -0.0119,-0.005 -0.17869,-0.0572 -0.37063,-0.11498 z"
       style="fill:#000000;stroke-width:0.116331" />
    <path
       transform="matrix(0.26458333,0,0,0.26458333,57.514928,-2.8505955)"
       id="path242"
       d="m 247.80315,275.58891 c -3.44424,-0.59368 -5.64901,-1.17489 -8.16597,-2.15264 -0.85481,-0.33207 -2.4624,-0.92996 -3.57241,-1.32865 l -2.01821,-0.72489 1.49472,-1.02023 c 0.82209,-0.56112 2.80344,-1.99151 4.40299,-3.17864 6.8691,-5.09801 8.89563,-6.55666 11.80759,-8.49886 2.93176,-1.9554 5.40412,-3.50332 5.59554,-3.50332 0.1771,0 1.02723,3.45211 1.54846,6.28776 0.42808,2.32889 1.23183,7.98428 1.23183,8.66746 0,0.58016 -0.007,0.59186 -0.31991,0.54747 -0.27863,-0.0395 -0.40039,0.0584 -0.94368,0.75892 -0.34308,0.44235 -0.78032,0.89675 -0.97166,1.00977 -0.53856,0.31814 -8.154,3.43733 -8.35087,3.42042 -0.096,-0.008 -0.87826,-0.1363 -1.73842,-0.28457 z"
       style="fill:#000000;stroke-width:0.116331" />
    <path
       transform="matrix(0.26458333,0,0,0.26458333,57.514928,-2.8505955)"
       id="path244"
       d=""
       style="fill:#000000;stroke-width:0.116331" />
    <path
       transform="matrix(0.26458333,0,0,0.26458333,57.514928,-2.8505955)"
       id="path246"
       d=""
       style="fill:#000000;stroke-width:0.116331" />
    <path
       transform="matrix(0.26458333,0,0,0.26458333,57.514928,-2.8505955)"
       id="path248"
       d="m 248.43643,275.69993 c -3.29344,-0.55771 -5.80191,-1.16022 -7.62916,-1.83243 -0.60261,-0.22169 -2.36894,-0.87198 -3.92517,-1.44508 l -2.82951,-1.04201 1.4917,-1.02279 c 0.82044,-0.56254 3.11452,-2.22743 5.09797,-3.69976 6.52864,-4.84629 7.99047,-5.89259 11.40043,-8.1598 4.18773,-2.78433 5.27126,-3.42302 5.4152,-3.19202 0.11397,0.18288 0.80242,2.98138 1.16781,4.74704 0.53781,2.59878 1.50199,9.10361 1.50199,10.13312 0,0.52638 -0.0101,0.5421 -0.31991,0.49817 -0.27863,-0.0395 -0.40039,0.0584 -0.94368,0.75892 -0.34308,0.44235 -0.78032,0.89675 -0.97166,1.00977 -0.54016,0.31909 -8.15442,3.43736 -8.35087,3.41994 -0.096,-0.009 -0.59328,-0.0864 -1.10514,-0.17307 z"
       style="fill:#000000;stroke-width:0.116331" />
    <path
       transform="matrix(0.26458333,0,0,0.26458333,57.514928,-2.8505955)"
       id="path250"
       d="m 257.28463,254.6675 c -1.40042,0.40413 -2.54016,1.41973 -3.7877,2.14285 -6.84824,4.33833 -13.10432,9.5208 -19.8,14.07759 -0.66147,0.58872 0.15893,1.24796 0.79221,1.29664 4.14086,1.50493 8.24779,3.22603 12.63219,3.89434 0.90354,0.0865 1.81878,0.47134 2.72334,0.33384 2.83938,-1.06643 5.67102,-2.18453 8.409,-3.48902 0.63644,-0.43281 1.02673,-1.16861 1.63114,-1.60728 0.93042,0.0267 0.91319,-1.07975 0.80549,-1.73084 -0.60188,-4.88407 -1.28286,-9.79314 -2.68247,-14.52118 -0.12053,-0.27537 -0.43012,-0.42984 -0.7232,-0.39694 z"
       style="fill:#000000;stroke-width:0.116331" />
    <path
       transform="matrix(0.26458333,0,0,0.26458333,57.514928,-2.8505955)"
       id="path252"
       d="m 270.60407,246.24191 c -0.88205,0.22748 -1.24468,1.24441 -2.04697,1.6474 -1.64122,1.23372 -3.65523,1.93907 -5.15578,3.35529 -0.52827,0.74734 0.0146,1.71815 0.005,2.54519 0.73983,4.95178 1.58707,9.8875 2.32685,14.83606 0.42599,0.85287 1.36355,0.12306 1.90257,-0.18911 6.21068,-3.80091 12.24552,-7.89268 18.09976,-12.22217 0.62714,-0.60551 -0.2052,-1.19253 -0.75084,-1.41435 -4.64837,-2.70268 -9.20074,-5.57447 -13.7719,-8.40721 -0.18614,-0.0985 -0.39467,-0.17223 -0.60846,-0.1511 z"
       style="fill:#000000;stroke-width:0.116331" />
    <path
       d="m 117.24029,53.337231 c 0.40173,-0.0652 0.79804,0.0044 1.18074,0.127492 0.55426,0.258482 0.81006,0.694028 1.03603,1.238263 0.19759,0.569301 0.22719,1.173705 0.2386,1.770671 0.007,0.450498 -0.0136,0.900255 -0.0441,1.349528 -0.0442,0.441476 -0.10111,0.882211 -0.20386,1.314112 -0.0882,0.336714 -0.22332,0.654108 -0.363,0.971499 -0.0957,0.214109 -0.2339,0.403374 -0.38892,0.577755 -0.1482,0.189582 -0.30022,0.375679 -0.4392,0.572262 -0.16093,0.230637 -0.32702,0.462915 -0.43876,0.721966 -0.11489,0.26719 -0.19321,0.545828 -0.27448,0.824333 -0.0971,0.339193 -0.14816,0.690063 -0.19553,1.039172 -0.0555,0.221356 -0.0804,0.450766 -0.14484,0.669841 -0.0249,0.07913 -0.0579,0.153003 -0.1003,0.223964 0,0 0.87298,-0.798986 0.87298,-0.798986 v 0 c 0.0271,-0.07824 0.0557,-0.156017 0.0778,-0.235868 0.0415,-0.211563 0.0606,-0.427739 0.0961,-0.640453 0.042,-0.347575 0.11043,-0.691314 0.20967,-1.027314 0.0863,-0.280416 0.18263,-0.558281 0.30176,-0.826605 0.12766,-0.247754 0.28538,-0.478409 0.44998,-0.702998 0.14955,-0.19879 0.30675,-0.391623 0.46443,-0.583997 0.14033,-0.177575 0.2588,-0.370818 0.34301,-0.581668 0.13081,-0.312081 0.24861,-0.628509 0.3205,-0.960337 0.0892,-0.435411 0.14895,-0.876345 0.18535,-1.319318 0.0281,-0.447394 0.0627,-0.893821 0.0206,-1.342009 -0.0367,-0.59954 -0.085,-1.206481 -0.2837,-1.777905 -0.23847,-0.561609 -0.51174,-1.044725 -1.08257,-1.321477 -0.36715,-0.12982 -0.74845,-0.211465 -1.13641,-0.247867 0,0 -0.7018,0.965944 -0.7018,0.965944 z"
       id="path280"
       style="fill:#000000;stroke-width:0.264583" />
    <path
       d="m 119.42238,60.178459 c 0.14868,0.432453 0.2105,0.894741 0.27136,1.34688 0.083,0.639352 0.0365,1.285086 0.0261,1.927341 -0.003,0.509079 -0.032,1.015989 -0.0719,1.523262 -0.0474,0.430913 -0.10431,0.859769 -0.17225,1.28783 -0.0557,0.232 -0.0694,0.480187 -0.18385,0.692766 0,0 0.85584,-0.801367 0.85584,-0.801367 v 0 c 0.0167,-0.217334 0.073,-0.429654 0.10603,-0.644699 0.072,-0.431028 0.1394,-0.862513 0.16898,-1.298988 0.0275,-0.498795 0.0436,-0.997408 0.038,-1.497132 0.0118,-0.640762 0.006,-1.282509 -0.0519,-1.921272 -0.0515,-0.494628 -0.12565,-0.986628 -0.15958,-1.48305 0,0 -0.82689,0.868429 -0.82689,0.868429 z"
       id="path282"
       style="fill:#000000;stroke-width:0.264583" />
    <path
       d="m 117.58341,62.70746 c -0.11656,0.609544 -0.28299,1.209619 -0.41905,1.815534 -0.13511,0.644519 -0.2846,1.285134 -0.44871,1.922883 -0.0661,0.160819 -0.1061,0.329573 -0.14712,0.497924 0,0 0.82922,-0.788786 0.82922,-0.788786 v 0 c 0.0425,-0.159451 0.0972,-0.316071 0.12066,-0.480034 0.0891,-0.612592 0.20659,-1.221491 0.34962,-1.823709 0.16361,-0.659162 0.33273,-1.318805 0.57307,-1.955041 0,0 -0.85769,0.811229 -0.85769,0.811229 z"
       id="path284"
       style="fill:#000000;stroke-width:0.264583" />
    <path
       d="m 116.63665,67.0431 c 0.17659,0.05581 0.35804,0.0986 0.54106,0.127166 0.0242,0.0039 0.0485,0.0077 0.0727,0.01159 0.0191,0.0031 0.0383,0.0054 0.0572,0.0094 0.0103,0.0021 0.0227,0.02138 0.0288,0.01283 0.7059,-0.985371 1.09294,-1.023239 0.65721,-0.969531 -0.12943,0.0105 -0.25924,0.0073 -0.38888,0.0063 -0.10374,0.0088 -0.19641,-0.0154 -0.2939,-0.0448 -0.0127,-0.004 -0.0253,-0.008 -0.038,-0.01201 0,0 -0.72973,0.952137 -0.72973,0.952137 v 0 c 0.0128,0.0026 0.0255,0.0053 0.0383,0.008 0.10816,0.0282 0.21348,0.0704 0.32733,0.05419 0.12688,-2.65e-4 0.25388,-0.0026 0.3805,0.0079 0.44421,0.04775 0.0477,0.01596 0.78345,-0.972375 0.004,-0.0051 -0.0128,-1.14e-4 -0.0192,1.72e-4 -0.06,0.0027 -0.0258,0.0043 -0.10027,0.0016 -0.0249,-7.93e-4 -0.0498,-0.0027 -0.0747,-0.004 -0.16862,-0.01778 -0.34484,-0.03694 -0.49415,-0.123341 0,0 -0.74775,0.934805 -0.74775,0.934805 z"
       id="path286"
       style="fill:#000000;stroke-width:0.264583" />
    <path
       d="m 119.87136,65.831006 c -0.18892,0.117713 -0.3658,0.253111 -0.55294,0.373531 -0.38592,0.182578 -1.23273,0.84696 -0.76955,1.086676 0.0865,0.02209 0.15171,-0.01601 0.22665,-0.05126 0.0769,-0.0053 0.12682,-0.05008 0.19127,-0.0844 0.011,-0.0069 0.022,-0.01371 0.033,-0.02056 0,0 0.6455,-1.012068 0.6455,-1.012068 v 0 c -0.01,0.0076 -0.0198,0.01524 -0.0297,0.02283 -0.0279,0.02246 -0.0613,0.0272 -0.0885,0.04732 -0.006,0.0043 -0.0298,0.04557 -0.0358,0.04896 -0.0115,0.0065 -0.0259,0.0051 -0.0388,0.0076 -0.0366,0.0058 -0.0801,0.01437 -0.11306,0.03276 -0.0825,0.04595 0.0299,-0.0055 -0.0375,0.04127 -0.005,0.0037 -0.0129,0.0019 -0.0194,0.0027 0.45436,0.836755 -1.18394,1.183473 -0.59459,0.865209 0.17279,-0.123889 0.34219,-0.252833 0.52548,-0.360553 0,0 0.65798,-1.000027 0.65798,-1.000027 z"
       id="path288"
       style="fill:#000000;stroke-width:0.264583" />
    <path
       d="m 118.55896,52.214802 c -0.35379,0.102582 -0.70974,0.198744 -1.05728,0.321593 -0.128,0.04525 -0.25861,0.08523 -0.38099,0.144023 -0.14294,0.06867 -0.27495,0.158105 -0.41243,0.237157 -0.13814,0.110686 -0.28296,0.213516 -0.41443,0.332052 -0.13771,0.124158 -0.26912,0.25581 -0.39178,0.394854 -0.3146,0.356642 -0.61787,0.723209 -0.91911,1.091207 -0.32371,0.395441 -0.61068,0.824963 -0.90653,1.241195 -0.49535,0.650518 -0.91204,1.353508 -1.17407,2.131066 -0.0591,0.175286 -0.10341,0.355195 -0.15511,0.532791 -0.26306,1.002818 -0.44669,2.023512 -0.58398,3.050445 -0.0749,0.730652 -0.1317,1.462688 -0.19363,2.194462 -0.0236,0.415488 -0.04,0.831731 -0.0482,1.247854 -0.005,0.255942 -0.002,0.512117 -0.0101,0.767974 -0.005,0.12772 -0.008,0.255397 -0.0113,0.383146 -0.005,0.06743 -0.004,0.134874 -0.001,0.202359 5.3e-4,0.01619 0.001,0.03237 0.002,0.04856 0,0 0.84355,-0.843547 0.84355,-0.843547 v 0 c 5.3e-4,-0.01746 0.001,-0.03491 0.002,-0.05236 0.003,-0.06679 0.004,-0.133591 -0.001,-0.200301 -0.003,-0.120044 -0.006,-0.239953 -0.0122,-0.359944 -0.01,-0.248084 -0.007,-0.496604 -0.0123,-0.744807 -0.006,-0.396957 -0.0153,-0.793817 -0.002,-1.190811 0.009,-0.711769 0.0709,-1.421693 0.13837,-2.129964 0.11044,-1.003774 0.24197,-2.008026 0.53296,-2.978597 0.15059,-0.459957 0.18138,-0.598065 0.37715,-1.030836 0.26545,-0.586814 0.62441,-1.120981 1.00235,-1.640096 0.12676,-0.178739 0.44457,-0.628917 0.57456,-0.804093 0.10322,-0.139096 0.22661,-0.264247 0.31538,-0.41298 0.0587,-0.09837 -0.31238,0.333629 -0.2243,0.260379 0.13702,-0.113961 0.2483,-0.255727 0.37244,-0.38359 0.12794,-0.10383 0.25588,-0.207661 0.38382,-0.311489 0.12665,-0.07225 0.24802,-0.154691 0.37997,-0.216754 0.40377,-0.189918 0.86351,-0.275431 1.30524,-0.308758 0,0 0.68209,-0.972188 0.68209,-0.972188 z"
       id="path294"
       style="fill:#000000;stroke-width:0.264583" />
    <path
       d="m 112.43961,65.510003 c -0.20727,0.163735 -0.42991,0.306126 -0.63866,0.467956 -0.53387,0.447942 -1.009,0.996328 -1.28988,1.637241 -0.0913,0.254222 -0.12092,0.527373 -0.044,0.787646 0.0838,0.188831 0.1993,0.360212 0.35204,0.499346 0.11687,0.09569 0.25121,0.145245 0.39865,0.167497 0.17588,0.0013 0.34756,-0.0582 0.51483,-0.107291 0.25883,-0.07013 0.50472,-0.176271 0.75076,-0.281194 0.18953,-0.09293 0.37645,-0.213125 0.51336,-0.37714 0.81043,-0.970846 0.6176,-0.624657 0.89163,-1.154681 0.17364,-0.391348 0.17855,-0.74938 0.0899,-1.160918 -0.10402,-0.370983 -0.31838,-0.599707 -0.64691,-0.78296 -0.16582,-0.08365 -0.34907,-0.09868 -0.53056,-0.115446 -0.0186,-5.29e-4 -0.0371,-0.0011 -0.0557,-0.0016 0,0 -0.69838,0.963358 -0.69838,0.963358 v 0 c 0.0185,-7.94e-4 0.037,-0.0019 0.0554,-0.0026 0.17294,-0.01135 0.3475,-0.0032 0.51297,0.05316 0.32579,0.136295 0.50824,0.330179 0.59833,0.67985 0.0653,0.405632 0.0447,0.743637 -0.15208,1.114155 -0.24986,0.419444 -0.14214,0.217897 0.51948,-0.550717 0.0358,-0.04164 -0.0714,0.08367 -0.10997,0.122785 -0.0802,0.08134 -0.14187,0.130916 -0.23648,0.193524 -0.0385,0.02548 -0.0792,0.04749 -0.11883,0.07123 -0.23927,0.101042 -0.47519,0.215836 -0.73024,0.271743 -0.15058,0.04894 -0.30452,0.07558 -0.45827,0.110664 -0.12692,-0.0083 -0.24795,-0.0301 -0.35302,-0.107979 -0.13882,-0.119864 -0.24508,-0.273386 -0.30785,-0.446219 -0.054,-0.239417 -0.0235,-0.483815 0.0764,-0.708279 0.0623,-0.125916 0.0744,-0.158287 0.15015,-0.278456 0.0299,-0.04739 0.13152,-0.180938 0.0942,-0.139134 -1.17954,1.322668 -0.67602,0.754751 -0.38907,0.500581 0.19144,-0.152516 0.39122,-0.295142 0.60353,-0.417163 0,0 0.63823,-1.009073 0.63823,-1.009073 z"
       id="path296"
       style="fill:#000000;stroke-width:0.264583" />
    <path
       transform="matrix(0.26458333,0,0,0.26458333,57.514928,-2.8505955)"
       id="path320"
       d="m 207.16622,262.08393 c -0.31164,0.31133 -0.62329,0.62267 -0.93494,0.934 -0.23931,-0.15746 -0.44903,-0.009 -0.62781,-0.023 -0.29574,-0.2501 -0.67397,-0.30899 -1.03791,-0.40098 0.12037,0.34516 0.41391,0.63278 0.7798,0.69085 -0.33498,0.23319 -0.71345,0.42237 -1.00924,0.70241 -0.30769,0.77548 -0.40672,1.74392 0.13365,2.44447 0.25446,0.39509 0.64668,0.81554 1.16467,0.7335 1.27561,-0.25239 2.53003,-0.62097 3.71088,-1.17093 0.18917,-0.1417 0.1528,-0.47305 0.21776,-0.6984 0.0835,-0.81268 0.0854,-1.68134 -0.25432,-2.43987 -0.30811,-0.64041 -0.90254,-1.13569 -1.58636,-1.32762 -0.18539,0.18521 -0.37078,0.37041 -0.55618,0.55562 z"
       style="fill:#000000;stroke-width:0.0480856" />
  </g>
</svg>
