<?xml version="1.0" encoding="UTF-8" standalone="no"?>
<svg
   xmlns:dc="http://purl.org/dc/elements/1.1/"
   xmlns:cc="http://creativecommons.org/ns#"
   xmlns:rdf="http://www.w3.org/1999/02/22-rdf-syntax-ns#"
   xmlns:svg="http://www.w3.org/2000/svg"
   xmlns="http://www.w3.org/2000/svg"
   xmlns:sodipodi="http://sodipodi.sourceforge.net/DTD/sodipodi-0.dtd"
   xmlns:inkscape="http://www.inkscape.org/namespaces/inkscape"
   width="124.81823mm"
   height="129.42973mm"
   viewBox="0 0 124.81823 129.42973"
   version="1.1"
   id="svg8"
   inkscape:version="1.0 (4035a4f, 2020-05-01)"
   sodipodi:docname="bayesian-reasoning_1.svg"
   inkscape:export-filename="bayesian-reasoning_1.png"
   inkscape:export-xdpi="150"
   inkscape:export-ydpi="150">
  <defs
     id="defs2">
    <rect
       x="98.095116"
       y="30.305807"
       width="79.713463"
       height="57.328663"
       id="rect89" />
  </defs>
  <sodipodi:namedview
     id="base"
     pagecolor="#ffffff"
     bordercolor="#666666"
     borderopacity="1.0"
     inkscape:pageopacity="0.0"
     inkscape:pageshadow="2"
     inkscape:zoom="0.97053503"
     inkscape:cx="213.17374"
     inkscape:cy="243.28639"
     inkscape:document-units="mm"
     inkscape:current-layer="layer1"
     inkscape:document-rotation="0"
     showgrid="false"
     inkscape:window-width="1280"
     inkscape:window-height="666"
     inkscape:window-x="0"
     inkscape:window-y="23"
     inkscape:window-maximized="0"
     fit-margin-top="10"
     fit-margin-left="10"
     fit-margin-right="10"
     fit-margin-bottom="10" />
  <metadata
     id="metadata5">
    <rdf:RDF>
      <cc:Work
         rdf:about="">
        <dc:format>image/svg+xml</dc:format>
        <dc:type
           rdf:resource="http://purl.org/dc/dcmitype/StillImage" />
        <dc:title></dc:title>
      </cc:Work>
    </rdf:RDF>
  </metadata>
  <g
     inkscape:label="Layer 1"
     inkscape:groupmode="layer"
     id="layer1"
     transform="translate(-57.514928,2.8505955)">
    <path
       style="fill:#000000;stroke-width:0.264583"
       id="path22"
       d="m 92.879953,63.040052 c -1.739204,0.378403 -3.259955,1.333 -4.713007,2.317642 -2.247466,1.777344 -4.204764,3.98376 -5.716707,6.420379 -0.506936,0.816972 -0.722844,1.310508 -1.141693,2.16595 -0.430852,1.036619 -0.779957,2.129941 -0.913058,3.250068 -0.13761,1.158065 -0.02567,2.31194 0.09204,3.464055 0.261006,1.209743 0.658381,2.467721 1.524431,3.400475 1.101614,1.186463 2.554542,1.71659 4.021363,2.266876 1.95844,0.570166 3.989133,0.715589 6.000644,0.354076 1.098804,-0.19748 1.507024,-0.383927 2.542611,-0.744929 0.901176,-0.483034 1.406422,-0.67922 2.16426,-1.375397 0.3184,-0.292497 0.601835,-0.623401 0.865653,-0.965938 0.96316,-1.250556 1.964815,-2.478178 2.81249,-3.809725 0.40517,-0.636458 0.54108,-1.932943 0.65653,-2.64169 C 101.2164,74.459339 100.616,72.250616 99.410332,69.88722 98.4172,68.3531 96.992993,67.183851 95.567685,66.070029 94.72935,65.437696 93.849359,64.851251 92.863641,64.478935 c 0,0 -2.363547,3.024752 -2.363547,3.024752 v 0 c 0.970344,0.341206 1.913538,0.731522 2.728809,1.381254 1.41391,1.04298 2.820607,2.146533 3.79063,3.636817 1.246423,2.291789 1.823104,4.356331 1.592834,6.997314 -0.08544,0.434557 -0.13471,0.877821 -0.256323,1.303674 -0.122703,0.429664 -0.913913,1.332682 -0.474067,1.253908 0.682464,-0.12223 0.917295,-1.066626 1.502683,-1.438133 0.358957,-0.227808 -0.501717,0.690547 -0.800807,0.992696 -0.72713,0.734565 -1.196443,0.929013 -2.080416,1.443873 -0.990222,0.386223 -1.46359,0.615247 -2.5185,0.841304 -1.965775,0.421243 -3.965599,0.316238 -5.89879,-0.214252 -1.190554,-0.440616 -1.708457,-0.539522 -2.74764,-1.2892 -1.433851,-1.034397 -2.126231,-2.554613 -2.392135,-4.261284 -0.0793,-0.879121 -0.151889,-1.367084 -0.116975,-2.252951 0.05891,-1.494742 0.458066,-2.946104 1.06072,-4.309229 0.43542,-0.870014 0.607036,-1.271085 1.142865,-2.098577 0.230564,-0.356061 1.053627,-1.319205 0.735759,-1.038318 -0.519978,0.459486 -0.95626,1.012923 -1.352029,1.582896 -0.489894,0.705525 2.222572,-2.567318 1.884439,-1.757478 1.310892,-0.897279 2.730929,-1.819992 4.335272,-2.056011 0,0 2.243527,-3.181938 2.243527,-3.181938 z" />
    <path
       style="fill:#000000;stroke-width:0.264583"
       id="path24"
       d="m 87.959677,88.344667 c 0.08935,2.333347 -0.177729,4.658749 -0.332402,6.983473 -0.197736,2.578153 -0.504362,5.1452 -0.730247,7.7208 -0.123436,1.42604 -0.19617,2.8559 -0.24796,4.28615 0.01561,0.62541 -0.08284,1.23218 -0.156779,1.8498 -0.0037,0.0268 -0.0603,0.4796 -0.08926,0.54033 -0.02061,0.0432 -0.139493,0.13063 -0.108833,0.0938 0.817779,-0.98168 1.653685,-1.94816 2.471398,-2.9299 0.08718,-0.10467 -0.210407,-0.17311 -0.313377,-0.26229 -1.190001,-1.23677 -2.19178,-2.63071 -3.22257,-3.99782 -1.02462,-1.29215 -2.081313,-2.55463 -2.956491,-3.955293 -0.697214,-1.207196 -1.094647,-2.550007 -1.45719,-3.887375 -0.183356,-0.317502 -0.03484,-0.965475 -0.372184,-1.202412 -0.0865,-0.06076 -0.189124,-0.09449 -0.283686,-0.141735 -0.884375,1.058749 -1.805435,2.087907 -2.653131,3.176244 -0.09886,0.12692 -0.113371,0.30113 -0.17204,0.450929 -0.08789,0.224415 -0.178493,0.44776 -0.267634,0.671682 -0.40826,1.025557 -0.851625,2.032577 -1.296154,3.04291 -0.861364,2.00786 -1.832004,3.96364 -2.84358,5.89903 -0.731687,1.11165 -0.768422,2.47432 -1.274411,3.67027 2.189234,-2.77085 2.892378,-3.12576 1.230617,-2.01716 0,0 -1.977541,3.02992 -1.977541,3.02992 v 0 c 2.091889,-0.89713 0.596855,-0.11758 3.534916,-3.61799 0.332314,-1.1849 0.501057,-2.42125 1.157401,-3.49454 0.962125,-1.92141 1.880068,-3.86354 2.741165,-5.832614 0.469606,-1.056347 0.936861,-2.114569 1.425607,-3.162263 0.681606,-1.461109 2.339663,-3.660153 -1.736622,1.520682 -0.296831,-0.370594 -0.150468,-0.224811 -0.09444,-0.06527 0.0969,0.275907 0.172429,0.559718 0.294841,0.826471 0.497935,1.307615 0.892849,2.663084 1.588108,3.885254 0.90255,1.38651 2.024772,2.5978 3.056713,3.88681 1.058992,1.38393 2.058408,2.81126 3.091225,4.21468 0.0049,0.006 0.515549,0.66383 0.567732,0.61654 2.79863,-2.53599 2.517098,-1.8206 2.715072,-3.64328 0.08835,-0.6148 0.147752,-1.22088 0.08625,-1.84354 -0.01553,-1.3649 0.0047,-2.72993 0.08532,-4.0929 0.158314,-2.534786 0.425398,-5.061343 0.601618,-7.594966 0.196683,-2.452135 0.425654,-4.901531 0.663959,-7.349855 0,0 -2.725404,2.725401 -2.725404,2.725401 z" />
    <path
       style="fill:#000000;stroke-width:0.264583"
       id="path26"
       d="m 72.604035,108.81239 c -0.986372,0.48939 -2.035746,0.82487 -3.08016,1.16354 0,0 -2.008947,2.94785 -2.008947,2.94785 v 0 c 0.977895,-0.29023 1.964976,-0.55449 2.926075,-0.89784 0,0 2.163032,-3.21355 2.163032,-3.21355 z" />
    <path
       style="fill:#000000;stroke-width:0.264583"
       id="path28"
       d="m 88.269496,106.85029 c -1.111465,-0.71897 -1.824683,-1.89326 -2.462538,-3.01948 -0.775473,-1.48191 -1.204672,-3.12059 -1.61113,-4.73531 -0.259832,-0.952434 -0.50822,-1.91027 -0.644951,-2.88916 -0.110903,-0.08096 0.05269,-0.428797 -0.02429,-0.517512 -0.913458,-1.052652 -2.037323,1.908982 -2.956107,2.956991 -0.705274,2.343291 -1.285748,4.717561 -1.872081,7.092731 -0.546129,2.11404 -1.079722,4.23198 -1.652516,6.33886 -0.276937,0.87765 -0.438351,1.80813 -0.834662,2.64515 -0.494814,1.04506 -2.251917,2.89851 1.91309,-2.24523 -0.627731,0.58324 -1.441926,0.78833 -2.249328,0.98771 0,0 -2.147171,3.1141 -2.147171,3.1141 v 0 c 0.832866,-0.21386 1.672635,-0.38543 2.417421,-0.84424 0.89439,-1.07507 1.817458,-2.12691 2.683166,-3.2252 0.08196,-0.10398 0.10545,-0.24316 0.149194,-0.36812 0.293259,-0.83775 0.427191,-1.72577 0.704381,-2.56859 0.516216,-2.05031 0.953993,-4.12094 1.467877,-6.17223 0.59305,-2.50537 1.188416,-5.031375 2.2734,-7.379403 -0.843118,0.88157 -1.636651,1.813393 -2.529361,2.644711 -0.05164,0.04809 -0.08658,-0.11449 -0.144666,-0.154572 -0.0081,-0.0056 0.121521,0.496744 0.112779,0.490352 0.236341,0.92319 0.562303,1.821942 0.823732,2.738012 0.458658,1.6299 0.863182,3.30446 1.682933,4.79843 0.695185,1.18693 1.456084,2.37311 2.435159,3.3464 0,0 2.465673,-3.0344 2.465673,-3.0344 z" />
    <path
       style="fill:#000000;stroke-width:0.264583"
       id="path42"
       d="m 89.093784,86.493769 c -1.825506,1.228725 -3.746945,2.303455 -5.596459,3.494659 -1.810808,1.214988 -2.919669,2.833217 -4.282286,4.63832 -0.446405,0.591365 -0.913884,2.08992 -1.168128,2.809148 -0.100676,0.296955 -0.201356,0.59391 -0.302035,0.890865 0,0 2.628085,-2.465581 2.628085,-2.465581 v 0 c 0.09079,-0.282932 0.181586,-0.565861 0.272381,-0.848791 0.265665,-0.713089 0.435911,-1.231638 0.781272,-1.912212 0.148638,-0.292902 0.735745,-1.073814 0.491802,-0.853869 -0.65577,0.591262 -1.178279,1.315622 -1.750113,1.988399 -0.197138,0.231939 0.398902,-0.462094 0.625539,-0.665302 0.251119,-0.225161 0.535355,-0.410396 0.803031,-0.615591 1.73187,-1.172479 3.52011,-2.252202 5.382192,-3.206834 0,0 2.114719,-3.253211 2.114719,-3.253211 z" />
    <text
       xml:space="preserve"
       id="text87"
       style="font-style:normal;font-weight:normal;font-size:5.64444000000000035px;line-height:1.25;font-family:sans-serif;white-space:pre;shape-inside:url(#rect89);fill:#000000;fill-opacity:1;stroke:none;"
       transform="translate(-2.9987755,-23.781356)"><tspan
         x="98.095703"
         y="35.456235"><tspan
           style="font-style:normal;font-variant:normal;font-weight:normal;font-stretch:normal;font-size:5.64444px;font-family:'Comic Sans MS';-inkscape-font-specification:'Comic Sans MS'">Bruh! There is a 99.9% </tspan></tspan><tspan
         x="98.095703"
         y="42.819092"><tspan
           style="font-style:normal;font-variant:normal;font-weight:normal;font-stretch:normal;font-size:5.64444px;font-family:'Comic Sans MS';-inkscape-font-specification:'Comic Sans MS'">chance that I actually have </tspan></tspan><tspan
         x="98.095703"
         y="50.18195"><tspan
           style="font-style:normal;font-variant:normal;font-weight:normal;font-stretch:normal;font-size:5.64444px;font-family:'Comic Sans MS';-inkscape-font-specification:'Comic Sans MS'">the disease. There is no way </tspan></tspan><tspan
         x="98.095703"
         y="57.544808"><tspan
           style="font-style:normal;font-variant:normal;font-weight:normal;font-stretch:normal;font-size:5.64444px;font-family:'Comic Sans MS';-inkscape-font-specification:'Comic Sans MS'">my eyes lit up hoping to be in </tspan></tspan><tspan
         x="98.095703"
         y="64.907666"><tspan
           style="font-style:normal;font-variant:normal;font-weight:normal;font-stretch:normal;font-size:5.64444px;font-family:'Comic Sans MS';-inkscape-font-specification:'Comic Sans MS'">that 0.01% of false positives. </tspan></tspan><tspan
         x="98.095703"
         y="72.270527"><tspan
           style="font-style:normal;font-variant:normal;font-weight:normal;font-stretch:normal;font-size:5.64444px;font-family:'Comic Sans MS';-inkscape-font-specification:'Comic Sans MS'">I’m not </tspan><tspan
           style="font-style:italic;font-size:5.64444px">that</tspan><tspan
           style="font-style:normal;font-variant:normal;font-weight:normal;font-stretch:normal;font-size:5.64444px;font-family:'Comic Sans MS';-inkscape-font-specification:'Comic Sans MS'"> delusional.</tspan></tspan></text>
    <path
       style="fill:#000000;stroke-width:0.264583"
       id="path107"
       d="m 88.315106,89.894875 c 0.438359,1.094599 0.676222,2.264245 0.9189,3.415537 0.190508,0.965584 0.295759,1.945087 0.317775,2.928507 0.02127,0.428402 -0.01201,0.856022 -0.0213,1.283859 -1.344295,0.296521 0.12613,0.0019 2.197775,-2.804883 0.09323,-0.126307 -0.268287,0.164783 -0.411543,0.228989 -0.187093,0.08385 -0.38262,0.147757 -0.576673,0.213926 -0.539911,0.184097 -0.773409,0.238282 -1.324454,0.388247 -1.320789,0.262136 -2.615808,0.623131 -3.906837,1.001657 -0.681572,0.190789 -1.350206,0.4234 -2.025367,0.63526 -0.195334,0.05265 -0.390827,0.100819 -0.593559,0.107246 -0.203319,-0.0044 -0.421653,0.09584 -0.603482,0.193233 -0.134382,0.02604 -0.257749,0.08431 -0.382035,0.13884 0,0 -2.164053,3.290497 -2.164053,3.290497 v 0 c 0.103002,-0.0587 0.208526,-0.11308 0.307951,-0.17782 0.15639,-0.0122 0.467251,-0.094 0.523145,-0.23315 0.241863,-0.007 0.482438,-0.0173 0.713263,-0.099 0.72407,-0.20876 1.39754,-0.572611 2.125851,-0.772038 1.278374,-0.436017 2.584585,-0.775872 3.909546,-1.039608 1.926887,-0.483074 5.065099,-0.976117 4.994918,-3.851606 -0.0028,-0.411906 -0.04414,-0.823722 -0.06404,-1.234916 -0.0946,-0.965076 -0.22225,-1.924365 -0.457758,-2.867226 -0.261972,-1.192067 -0.527452,-2.383454 -0.804603,-3.572039 0,0 -2.673424,2.826528 -2.673424,2.826528 z" />
    <path
       style="fill:none;stroke:#000000;stroke-width:0.264583px;stroke-linecap:butt;stroke-linejoin:miter;stroke-opacity:1"
       d="m 116.15971,54.790779 c -2.61555,5.177496 -7.96951,7.616583 -14.10353,9.275604"
       id="path117"
       sodipodi:nodetypes="cc" />
  </g>
</svg>
