<?xml version="1.0" encoding="UTF-8" standalone="no"?>
<svg
   xmlns:dc="http://purl.org/dc/elements/1.1/"
   xmlns:cc="http://creativecommons.org/ns#"
   xmlns:rdf="http://www.w3.org/1999/02/22-rdf-syntax-ns#"
   xmlns:svg="http://www.w3.org/2000/svg"
   xmlns="http://www.w3.org/2000/svg"
   xmlns:sodipodi="http://sodipodi.sourceforge.net/DTD/sodipodi-0.dtd"
   xmlns:inkscape="http://www.inkscape.org/namespaces/inkscape"
   inkscape:export-ydpi="150"
   inkscape:export-xdpi="150"
   inkscape:export-filename="bayesian-reasoning_1.png"
   sodipodi:docname="bayesian-reasoning_2.svg"
   inkscape:version="1.0 (4035a4f, 2020-05-01)"
   id="svg8"
   version="1.1"
   viewBox="0 0 124.81823 129.42973"
   height="129.42973mm"
   width="124.81823mm">
  <defs
     id="defs2">
    <rect
       id="rect89"
       height="9.4388935"
       width="40.821165"
       y="30.305807"
       x="98.095116" />
  </defs>
  <sodipodi:namedview
     fit-margin-bottom="10"
     fit-margin-right="10"
     fit-margin-left="10"
     fit-margin-top="10"
     inkscape:window-maximized="0"
     inkscape:window-y="0"
     inkscape:window-x="0"
     inkscape:window-height="800"
     inkscape:window-width="1280"
     showgrid="false"
     inkscape:document-rotation="0"
     inkscape:current-layer="layer1"
     inkscape:document-units="mm"
     inkscape:cy="266.40492"
     inkscape:cx="143.3769"
     inkscape:zoom="0.88086467"
     inkscape:pageshadow="2"
     inkscape:pageopacity="0.0"
     borderopacity="1.0"
     bordercolor="#666666"
     pagecolor="#ffffff"
     id="base" />
  <metadata
     id="metadata5">
    <rdf:RDF>
      <cc:Work
         rdf:about="">
        <dc:format>image/svg+xml</dc:format>
        <dc:type
           rdf:resource="http://purl.org/dc/dcmitype/StillImage" />
        <dc:title />
      </cc:Work>
    </rdf:RDF>
  </metadata>
  <g
     transform="translate(-57.514928,2.8505955)"
     id="layer1"
     inkscape:groupmode="layer"
     inkscape:label="Layer 1">
    <path
       d="m 123.38894,24.421979 c -1.7392,0.378403 -3.25995,1.333 -4.71301,2.317642 -2.24746,1.777344 -4.20476,3.98376 -5.7167,6.420379 -0.50694,0.816972 -0.72285,1.310508 -1.1417,2.16595 -0.43085,1.036619 -0.77995,2.129941 -0.91305,3.250068 -0.13761,1.158065 -0.0257,2.31194 0.092,3.464055 0.261,1.209743 0.65838,2.467721 1.52443,3.400475 1.10161,1.186463 2.55454,1.71659 4.02136,2.266876 1.95844,0.570166 3.98913,0.715589 6.00064,0.354076 1.09881,-0.19748 1.50703,-0.383927 2.54261,-0.744929 0.90118,-0.483034 1.40643,-0.67922 2.16426,-1.375397 0.3184,-0.292497 0.60184,-0.623401 0.86566,-0.965938 0.96316,-1.250556 1.96481,-2.478178 2.81249,-3.809725 0.40517,-0.636458 0.54108,-1.932943 0.65653,-2.64169 0.14089,-2.682555 -0.45951,-4.891278 -1.66518,-7.254674 -0.99313,-1.53412 -2.41734,-2.703369 -3.84265,-3.817191 -0.83833,-0.632333 -1.71832,-1.218778 -2.70404,-1.591094 0,0 -2.36355,3.024752 -2.36355,3.024752 v 0 c 0.97035,0.341206 1.91354,0.731522 2.72881,1.381254 1.41391,1.04298 2.82061,2.146533 3.79063,3.636817 1.24642,2.291789 1.8231,4.356331 1.59283,6.997314 -0.0854,0.434557 -0.13471,0.877821 -0.25632,1.303674 -0.1227,0.429664 -0.91391,1.332682 -0.47407,1.253908 0.68247,-0.12223 0.9173,-1.066626 1.50269,-1.438133 0.35895,-0.227808 -0.50172,0.690547 -0.80081,0.992696 -0.72713,0.734565 -1.19644,0.929013 -2.08042,1.443873 -0.99022,0.386223 -1.46359,0.615247 -2.5185,0.841304 -1.96577,0.421243 -3.96559,0.316238 -5.89879,-0.214252 -1.19055,-0.440616 -1.70845,-0.539522 -2.74764,-1.2892 -1.43385,-1.034397 -2.12623,-2.554613 -2.39213,-4.261284 -0.0793,-0.879121 -0.15189,-1.367084 -0.11698,-2.252951 0.0589,-1.494742 0.45807,-2.946104 1.06072,-4.309229 0.43542,-0.870014 0.60704,-1.271085 1.14287,-2.098577 0.23056,-0.356061 1.05363,-1.319205 0.73576,-1.038318 -0.51998,0.459486 -0.95626,1.012923 -1.35203,1.582896 -0.48989,0.705525 2.22257,-2.567318 1.88444,-1.757478 1.31089,-0.897279 2.73093,-1.819992 4.33527,-2.056011 0,0 2.24353,-3.181938 2.24353,-3.181938 z"
       id="path22"
       style="fill:#000000;stroke-width:0.264583" />
    <text
       transform="translate(32.120389,-19.717982)"
       style="font-style:normal;font-weight:normal;font-size:5.64444000000000035px;line-height:1.25;font-family:sans-serif;white-space:pre;shape-inside:url(#rect89);fill:#000000;fill-opacity:1;stroke:none;"
       id="text87"
       xml:space="preserve"><tspan
         x="98.095703"
         y="35.456235"><tspan
           style="font-style:normal;font-variant:normal;font-weight:normal;font-stretch:normal;font-family:'Comic Sans MS';-inkscape-font-specification:'Comic Sans MS'">What? How?</tspan></tspan></text>
    <path
       sodipodi:nodetypes="cc"
       id="path117"
       d="m 150.11791,18.22041 c -2.61555,5.177496 -7.96951,7.616583 -14.10353,9.275604"
       style="fill:none;stroke:#000000;stroke-width:0.264583px;stroke-linecap:butt;stroke-linejoin:miter;stroke-opacity:1" />
    <path
       d="m 121.44864,51.515543 c -0.48746,0.421036 -1.01512,0.790122 -1.55707,1.136726 -0.91576,0.613127 -1.92088,1.069991 -2.90669,1.555552 -0.16546,0.07854 -0.33042,0.158155 -0.4964,0.235609 -0.42916,0.200271 -0.48668,0.21346 -0.90163,0.430249 -0.4358,0.227677 -0.85886,0.480454 -1.28719,0.721704 -0.83326,0.516308 -1.68537,0.998808 -2.54453,1.470507 -0.70604,0.400177 -1.42306,0.780325 -2.13362,1.172297 -0.39131,0.220776 -0.77261,0.457936 -1.16967,0.668475 -0.21143,0.115028 -0.421,0.233333 -0.62903,0.35442 -0.0958,0.06039 -0.1931,0.114104 -0.29553,0.161486 -0.0914,0.02228 -0.14525,-0.003 -0.23232,0.04644 -0.13288,0.0937 -0.29356,0.131043 -0.43437,0.208063 -0.13427,0.100491 -0.27245,0.195545 -0.41513,0.284041 -0.1419,0.0777 -0.29404,0.13925 -0.42965,0.228004 -0.0425,0.03229 -0.0195,0.03124 -0.0207,-0.0016 -0.003,-0.06648 -0.0154,-0.132165 -0.0221,-0.198364 -0.004,-0.427365 -0.0994,-0.844367 -0.16395,-1.265012 -0.14515,-0.678 -0.32185,-1.34873 -0.47378,-2.025185 -0.14069,-0.619439 -0.30333,-1.2355 -0.50603,-1.837729 -0.18376,-0.425159 -0.34552,-0.856909 -0.47131,-1.302869 -0.0784,-0.293968 -0.11242,-0.596498 -0.11615,-0.900047 -0.0132,-0.161438 0.0348,-0.329213 -0.0182,-0.483978 -0.14241,-0.321964 -0.65421,0.02006 -0.84525,0.1173 -0.51367,0.294632 -1.054,0.529529 -1.62013,0.701162 0,0 -0.89616,1.326131 -0.89616,1.326131 v 0 c 0.55395,-0.221607 1.10801,-0.443309 1.64601,-0.702037 0.23048,-0.118399 0.15335,-0.08781 0.3764,-0.171003 0.0389,-0.0145 0.0791,-0.02527 0.11731,-0.04153 0.0149,-0.0064 0.0302,-0.01387 0.041,-0.0259 0.004,-0.0045 -0.004,-0.02363 -0.001,-0.01823 0.006,0.01164 0.008,0.02508 0.0114,0.03761 0.004,0.147995 0.005,0.296034 0.0212,0.443458 0.0359,0.300013 0.0817,0.598484 0.18389,0.884631 0.14452,0.436221 0.30646,0.864299 0.49932,1.28188 0.21061,0.582425 0.40026,1.175036 0.53803,1.779045 0.15898,0.684094 0.32195,1.368777 0.41701,2.065425 0.0567,0.436401 0.12707,0.870188 0.10176,1.31227 0.009,0.200268 0.0191,0.41997 0.26426,0.437835 0.16507,-0.05164 0.28895,-0.197377 0.45656,-0.249603 0.14939,-0.06715 0.29839,-0.150685 0.4226,-0.256841 0.11761,-0.109689 0.26908,-0.147342 0.41666,-0.208675 0.14413,-0.08559 -0.006,0.02254 0.0413,-0.05922 0.0114,-0.01968 0.12142,0.0095 0.13907,-0.0077 0.13898,-0.0051 0.25755,-0.08055 0.36631,-0.161566 0.21085,-0.137091 0.43792,-0.246382 0.64251,-0.393602 0.41894,-0.225914 0.81519,-0.489275 1.22118,-0.737081 0.71753,-0.438843 1.45478,-0.844214 2.1859,-1.259695 0.85839,-0.469802 1.71189,-0.947518 2.54317,-1.464101 0.88846,-0.511807 1.77647,-1.023188 2.71222,-1.44594 0.96795,-0.460962 1.94424,-0.915074 2.86512,-1.465421 0.50342,-0.298235 0.98731,-0.621353 1.4658,-0.957421 0,0 0.89196,-1.420048 0.89196,-1.420048 z"
       id="path162"
       style="fill:#000000;stroke-width:0.264583" />
    <path
       d="m 121.21656,53.552451 c 0.56458,0.07818 1.09682,0.277786 1.61993,0.494805 0.55649,0.248338 1.06852,0.574558 1.5681,0.919924 0.43899,0.333463 0.93942,0.556446 1.42629,0.805908 0.69992,0.3785 1.45036,0.634423 2.19097,0.917297 0.76856,0.273381 1.51757,0.59613 2.27722,0.892686 0.5195,0.214582 1.00624,0.493606 1.48922,0.778465 0.72364,0.35284 1.42488,0.744209 2.11094,1.165021 0.41731,0.247573 0.79066,0.557744 1.09087,0.9383 0.44527,0.583311 0.40564,0.0019 1.31308,-1.11629 0.0324,-0.03988 -0.0506,-0.09004 -0.0674,-0.13856 -0.0415,-0.119491 -0.0892,-0.425646 -0.10534,-0.515935 -0.15091,-0.972886 -0.19919,-1.958573 -0.21689,-2.941823 -0.0116,-0.784124 -5.3e-4,-1.568413 -0.0324,-2.352063 -0.0553,-0.36476 0.0279,-0.751224 -0.0488,-1.11187 -0.0493,-0.102367 -0.0758,-0.198038 -0.0851,-0.310597 -0.0113,-0.101954 -0.0657,-0.223393 -0.13896,-0.298338 -0.32607,0.450069 -0.68666,0.877048 -0.97822,1.350208 -0.023,0.03734 0.0861,0.01736 0.12834,0.02903 0.0547,0.01511 0.10799,0.03514 0.16244,0.05125 0.2121,0.06275 0.42289,0.128196 0.63447,0.192852 0.24137,0.115332 0.58133,0.08075 0.79099,0.262604 -0.58803,-0.240069 -0.0982,-0.01013 0.9425,-1.321837 0,0 -0.90918,1.434653 -0.90918,1.434653 v 0 c 1.13088,-1.380061 1.51402,-0.934424 1.03016,-1.430822 -0.28265,-0.112133 -0.58944,-0.116607 -0.87896,-0.205946 -0.20316,-0.06354 -0.40799,-0.128532 -0.60432,-0.211572 -0.10231,-0.04328 -0.26861,-0.135744 -0.27319,-0.131212 -0.41122,0.406207 -0.76155,0.869747 -1.14233,1.304621 -0.003,-0.0061 -0.0141,-0.02416 -0.0101,-0.01842 0.0437,0.06282 0.0569,0.132239 0.0645,0.206835 0.0201,0.11021 0.054,0.209114 0.10746,0.307116 0.0737,0.326239 0.078,0.666644 0.12667,0.996685 0.0649,0.760291 0.0536,1.521762 0.0952,2.283439 0.058,0.998027 0.12042,1.995813 0.1745,2.9939 8e-5,0.130784 -5.3e-4,0.261567 2.4e-4,0.392348 5.3e-4,0.07701 0.0132,0.154647 0.003,0.231013 -0.004,0.033 -0.0687,0.112557 -0.045,0.08912 1.84127,-1.826085 1.54635,-0.836562 1.04072,-1.267155 -0.34999,-0.356974 -0.81855,-0.573019 -1.22918,-0.849564 -0.69271,-0.396267 -1.40353,-0.766863 -2.05919,-1.222674 -0.1499,-0.09939 -0.27989,-0.191191 -0.43868,-0.275355 -0.3566,-0.18901 -0.74849,-0.299349 -1.11433,-0.467439 -0.75904,-0.310557 -1.53917,-0.563764 -2.30324,-0.861322 -0.72355,-0.289941 -1.44812,-0.582676 -2.12978,-0.963959 -0.46752,-0.270177 -0.94293,-0.526976 -1.39619,-0.820507 -0.51884,-0.336498 -1.04995,-0.651249 -1.61192,-0.911657 -0.50781,-0.222448 -1.0321,-0.397647 -1.54003,-0.617953 0,0 -1.02922,1.324782 -1.02922,1.324782 z"
       id="path164"
       style="fill:#000000;stroke-width:0.264583" />
    <path
       d="m 99.698403,51.343931 c -0.1525,0.0029 -0.29678,0.05293 -0.44387,0.08725 -0.06182,0.01442 -0.124105,0.02677 -0.186158,0.04015 -0.428892,0.10517 -0.8685,0.156552 -1.300218,0.246976 -0.09083,0.01902 -0.180774,0.04209 -0.271161,0.06314 -0.486296,0.132775 -0.83543,0.370625 -1.191212,0.715645 0.147177,0.05543 -0.583579,0.452903 -0.444984,0.704953 0.07969,0.144928 0.304075,0.139417 0.437335,0.153638 0.09225,-0.0038 0.184724,-0.0039 0.276764,-0.01125 0.117608,-0.0094 0.234569,-0.02561 0.351809,-0.03881 0.516646,-0.05817 1.030668,-0.133848 1.545825,-0.203602 0.432163,-0.05943 0.867593,-0.107135 1.293138,-0.206367 0.214699,-0.05006 0.250139,-0.06677 0.450669,-0.13384 0.361,-0.162041 0.4505,-0.257884 0.70608,-0.665789 0.0229,-0.03662 0.0107,-0.08853 -0.003,-0.12963 -0.0366,-0.112615 -0.12414,-0.147831 -0.214,-0.209603 -0.40965,-0.198835 -0.872831,-0.196528 -1.318072,-0.205994 0,0 -0.272116,0.37488 -0.272116,0.37488 v 0 c 0.432258,-0.01267 0.882362,-0.0019 1.267788,0.21876 0.0687,0.05951 0.14117,0.09874 0.16205,0.194609 0.007,0.03341 -0.0364,0.121147 -0.008,0.10228 0.10295,-0.06811 0.18484,-0.166526 0.25672,-0.266877 0.0341,-0.04758 -0.0914,0.07348 -0.14075,0.104957 -0.0574,0.03663 -0.1192,0.06592 -0.17881,0.09888 -0.20632,0.08395 -0.24541,0.106024 -0.46777,0.169219 -0.433621,0.123235 -0.881293,0.191826 -1.326066,0.259302 -0.411789,0.0591 -0.369622,0.05527 -0.783518,0.105741 -0.43407,0.05293 -0.872755,0.106953 -1.310121,0.05867 -0.101873,-0.02373 -0.292071,-0.03996 -0.344345,-0.159811 -0.0093,-0.02132 -0.01,-0.04701 -0.0046,-0.06964 0.0075,-0.03179 0.06619,-0.110635 0.04216,-0.0885 -0.08553,0.0788 -0.153626,0.174641 -0.230439,0.261964 0.349557,-0.369202 0.704334,-0.638646 1.20278,-0.780261 0.09064,-0.02267 0.180652,-0.04803 0.271917,-0.06805 0.416928,-0.09144 0.844664,-0.122314 1.264608,-0.196683 0.186095,-0.02643 0.375658,-0.07283 0.564322,-0.0517 0,0 0.344821,-0.474607 0.344821,-0.474607 z"
       id="path188"
       style="fill:#000000;stroke-width:0.264583" />
    <path
       d="m 95.85872,53.517163 c 0.01677,0.144513 0.0227,0.290169 0.03747,0.435131 0.02413,0.23649 0.0259,0.474308 0.03319,0.711682 0.0033,0.274666 0.0043,0.549314 0.0069,0.823989 -0.004,0.281234 -0.0076,0.561226 0.0321,0.840121 0.04739,0.259813 0.197025,0.477393 0.418544,0.622027 0.05172,0.03377 0.108704,0.0587 0.163055,0.08805 0.321921,0.140078 0.642065,0.202639 0.988494,0.237305 0.316201,0.02487 0.631322,-0.01773 0.940996,-0.07804 0.388964,-0.08083 0.740675,-0.264755 1.047538,-0.514533 0.0561,-0.04566 0.108207,-0.09601 0.162312,-0.144018 0.291391,-0.303993 0.583861,-0.621495 0.750791,-1.012838 0.0677,-0.158686 0.0767,-0.217892 0.12093,-0.385545 0.089,-0.430422 0.093,-0.871792 0.0809,-1.309333 -0.009,-0.346149 -0.0255,-0.692309 -0.0613,-1.036781 -0.0244,-0.248848 -0.044,-0.498485 -0.0815,-0.74577 -0.0119,-0.0727 -0.01,-0.03932 -0.01,-0.09986 0,0 -0.40043,0.412191 -0.40043,0.412191 v 0 c 0.0162,0.05338 0.007,0.0245 0.0277,0.08653 0.0641,0.228759 0.0902,0.466312 0.11572,0.701881 0.0285,0.339164 0.0527,0.678487 0.0756,1.018067 0.0163,0.434565 0.0169,0.873762 -0.0904,1.298413 -0.0576,0.193908 -0.11962,0.377127 -0.219587,0.554189 -0.03201,0.0567 -0.162962,0.191865 -0.103317,0.165761 0.08208,-0.03592 0.118974,-0.134032 0.180224,-0.199419 0.0481,-0.05139 -0.09392,0.104947 -0.14088,0.157422 -0.0548,0.05161 -0.107223,0.105857 -0.164381,0.154839 -0.291875,0.250129 -0.629343,0.436378 -1.011261,0.500449 -0.303874,0.04977 -0.610708,0.07547 -0.91893,0.0697 -0.335989,-0.02381 -0.671679,-0.07262 -0.982008,-0.211365 -0.05084,-0.0291 -0.104381,-0.05394 -0.15253,-0.08732 -0.211484,-0.146595 -0.335995,-0.363577 -0.373221,-0.615559 -0.03897,-0.27419 -0.03986,-0.54946 -0.03575,-0.826069 0.0024,-0.277603 0.0043,-0.555267 7.94e-4,-0.832852 -2.65e-4,-0.241993 -0.01119,-0.483733 -0.02397,-0.725361 -0.0073,-0.151373 -0.02077,-0.308216 0.01069,-0.457372 0,0 -0.424603,0.404294 -0.424603,0.404294 z"
       id="path190"
       style="fill:#000000;stroke-width:0.264583" />
    <path
       d="m 100.24372,53.212413 c 0.12615,-0.114937 0.30978,-0.122912 0.47205,-0.126949 0.19196,-5.29e-4 0.33217,0.02756 0.49095,0.137469 0.13956,0.114602 0.18898,0.25055 0.18804,0.426863 -0.004,0.02738 -0.002,0.05622 -0.0118,0.08215 -0.0113,0.03028 -0.0332,0.05545 -0.0498,0.08317 0.0843,-0.104011 0.17585,-0.202555 0.25293,-0.312031 0.0265,-0.03765 -0.0647,0.06572 -0.1002,0.09509 -0.0919,0.07617 -0.16828,0.119321 -0.26942,0.1828 -0.18653,0.11166 -0.37254,0.224163 -0.55856,0.336675 0,0 -0.27681,0.430397 -0.27681,0.430397 v 0 c 0.1839,-0.122967 0.37126,-0.240175 0.56454,-0.347988 0.0601,-0.03527 0.20914,-0.12066 0.26781,-0.163002 0.19994,-0.14429 0.40191,-0.433353 0.51484,-0.581818 0.0232,-0.03046 0.0353,-0.06856 0.0453,-0.105524 0.008,-0.02843 0.005,-0.05871 0.007,-0.08806 -0.0126,-0.196461 -0.073,-0.33206 -0.22715,-0.459642 -0.16792,-0.116551 -0.31589,-0.156636 -0.52084,-0.153699 -0.16296,2.09e-4 -0.32777,0.01069 -0.48265,0.06449 0,0 -0.30615,0.499602 -0.30615,0.499602 z"
       id="path192"
       style="fill:#000000;stroke-width:0.264583" />
    <path
       d="m 117.34089,74.557901 c 0.81652,0.974667 1.3139,2.161262 1.787,3.327728 0.62562,1.670643 1.06791,3.401669 1.53429,5.121378 0.33315,1.285484 0.66362,2.574928 0.91411,3.879607 0.17093,0.935725 0.3727,1.865365 0.55315,2.799215 0.11711,0.683096 0.21236,1.371171 0.3573,2.049105 0.0929,0.526468 0.21108,1.047268 0.30986,1.572519 0.0702,0.512755 0.17698,1.017307 0.23632,1.531935 0.002,0.374457 0.0581,0.714968 0.19655,1.061545 0.13987,0.42581 0.17257,0.871816 0.30007,1.300441 0.0512,0.169447 0.0967,0.34109 0.12682,0.515652 0.002,0.09142 0.12115,0.143547 0.14486,0.2532 0.0324,0.116751 0.0386,0.235861 0.0376,0.355955 0.008,0.166023 0.15256,0.285575 0.10552,0.456591 0,0 2.00426,-2.027181 2.00426,-2.027181 v 0 c -0.0432,-0.158994 -0.10557,-0.309674 -0.0889,-0.476774 -0.0181,-0.138417 -0.0604,-0.269963 -0.10824,-0.401024 -0.0586,-0.131281 -0.10855,-0.173291 -0.11268,-0.265351 -0.0714,-0.150079 -0.12967,-0.306115 -0.185,-0.462692 -0.15331,-0.41088 -0.19226,-0.855872 -0.31205,-1.277033 -0.0722,-0.335537 -0.13687,-0.670811 -0.18574,-1.01083 -0.0858,-0.515985 -0.15679,-1.034095 -0.24468,-1.549315 -0.11728,-0.513816 -0.2153,-1.030875 -0.3405,-1.542765 -0.14224,-0.665151 -0.24536,-1.338574 -0.40452,-2.00013 -0.21568,-0.911217 -0.38589,-1.832386 -0.60612,-2.742695 -0.29307,-1.272974 -0.68021,-2.524371 -1.02945,-3.782645 -0.49775,-1.70543 -1.02158,-3.403901 -1.60194,-5.083201 -0.46649,-1.246174 -0.97228,-2.475587 -1.46938,-3.7084 0,0 -1.91848,2.105165 -1.91848,2.105165 z"
       id="path226"
       style="fill:#000000;stroke-width:0.264583" />
    <path
       d="m 123.51389,97.327395 c 0.14393,0.253063 0.18392,0.546894 0.15614,0.832707 -0.0735,0.275614 -0.13575,0.557572 -0.24055,0.823402 -0.0616,0.172749 -0.1268,0.342924 -0.17963,0.518239 -0.0572,0.12977 -0.10472,0.268224 -0.12649,0.408797 -0.0248,0.12746 0.0896,0.22044 0.184,0.28476 0.13236,0.0831 0.27519,0.1261 0.42589,0.16202 0.13626,0.0316 0.27494,0.0362 0.41409,0.0368 0.15457,0.007 0.30321,-0.001 0.45394,-0.0355 0.23205,-0.0329 0.45418,-0.10736 0.67645,-0.17851 0.19477,-0.0572 0.37653,-0.13827 0.54252,-0.254668 0.44961,-0.352758 0.88689,-0.744775 0.91757,-1.302017 -0.0504,-0.176122 -0.13302,-0.344561 -0.20946,-0.511529 -0.0972,-0.212982 -0.21292,-0.41569 -0.32669,-0.620067 -0.12969,-0.221256 -0.2332,-0.456698 -0.34359,-0.687912 -0.0729,-0.181395 -0.15429,-0.358796 -0.22694,-0.540295 0,0 -0.79668,0.849141 -0.79668,0.849141 v 0 c 0.054,0.200459 0.12048,0.39329 0.21056,0.580824 0.11348,0.232579 0.21695,0.470471 0.34273,0.696756 0.10626,0.204306 0.23132,0.398907 0.31617,0.614106 0.0596,0.156456 0.14898,0.319926 0.14233,0.490627 -0.0104,0.05831 -0.0193,0.115147 -0.0481,0.16804 -0.009,0.01736 -0.0462,0.06405 -0.0333,0.04903 0.54738,-0.639461 1.01398,-1.206831 0.70776,-0.834819 -0.13885,0.149482 -0.33155,0.239097 -0.51966,0.310539 -0.21126,0.06669 -0.42395,0.134935 -0.64461,0.160592 -0.14462,0.01865 -0.28247,0.06477 -0.431,0.04311 -0.13275,-0.0024 -0.26609,-0.0033 -0.39798,-0.01984 -0.13795,-0.02196 -0.25902,-0.06576 -0.37785,-0.139618 -0.0748,-0.05486 -0.10376,-0.09659 -0.0764,-0.188166 0.0338,-0.132699 0.0753,-0.26185 0.12432,-0.389816 0.0518,-0.165941 0.11248,-0.329155 0.16167,-0.49611 0.0791,-0.275463 0.17187,-0.550627 0.2046,-0.836218 -0.002,-0.315209 -0.0649,-0.625078 -0.16881,-0.922692 0,0 -0.833,0.928275 -0.833,0.928275 z"
       id="path246"
       style="fill:#000000;stroke-width:0.264583" />
    <path
       d="m 120.62851,48.248002 c 0.0213,0.08922 0.0534,0.176535 0.0639,0.267658 0.17331,1.50468 -0.0878,3.210338 -0.24739,4.708938 -0.27915,1.958059 -0.51199,3.918984 -0.63526,5.893186 -0.0518,1.664229 -0.2087,3.322915 -0.3656,4.979871 -0.16148,1.861404 -0.57212,3.683844 -0.89856,5.519814 -0.38475,2.219306 -0.86341,4.42228 -1.52569,6.575652 -0.5972,1.769248 -1.34695,3.480864 -1.98095,5.237221 -0.77362,2.075683 -1.69137,4.089617 -2.63508,6.09174 -0.66556,1.319186 -1.22999,2.683619 -1.72692,4.074139 -0.42352,1.351769 -0.76025,2.723912 -1.27576,4.044831 -0.28881,0.800682 -0.7141,1.533641 -1.11264,2.280819 -0.13806,0.229447 -0.24944,0.466098 -0.39379,0.692005 0,0 2.06489,-1.853915 2.06489,-1.853915 v 0 c 0.13069,-0.235127 0.26394,-0.468921 0.38778,-0.707771 0.35488,-0.695893 0.65494,-1.414954 0.92032,-2.149903 0.46321,-1.327031 0.77806,-2.698438 1.24806,-4.023913 0.47763,-1.363774 1.06489,-2.67711 1.667,-3.989922 0.85778,-1.976088 1.66294,-3.973547 2.48044,-5.966542 0.725,-1.758183 1.52562,-3.494299 2.04901,-5.327017 0.60422,-2.156003 0.97539,-4.363149 1.46457,-6.546708 0.397,-1.859343 0.83092,-3.713569 0.96564,-5.616559 0.16365,-1.67287 0.38303,-3.343566 0.39849,-5.027244 0.0777,-1.90794 0.23553,-3.81049 0.46389,-5.706639 0.12893,-1.193948 0.26714,-2.387055 0.42421,-3.577701 0.0924,-0.700125 0.15613,-0.936387 0.18805,-1.569376 0.006,-0.118843 -7.9e-4,-0.237988 -0.001,-0.356982 0,0 -1.98756,2.054318 -1.98756,2.054318 z"
       id="path408"
       style="fill:#000000;stroke-width:0.264583" />
    <path
       d="m 113.36154,90.784291 c -0.27903,0.500619 -0.5725,0.993048 -0.86601,1.485265 -0.0879,0.128569 -0.14427,0.283785 -0.24504,0.403503 0,0 0.48446,-0.429733 0.48446,-0.429733 v 0 c 0.0583,-0.113435 0.11287,-0.228809 0.16956,-0.343035 0.26912,-0.521544 0.55673,-1.035196 0.89919,-1.512777 0,0 -0.44216,0.396777 -0.44216,0.396777 z"
       id="path412"
       style="fill:#ffffff;stroke-width:0.264583" />
    <path
       d="m 109.85688,96.128877 c -0.56849,0.340868 -1.17185,0.617816 -1.76714,0.907601 -0.57503,0.277129 -1.16205,0.525912 -1.75344,0.765481 -0.45695,0.163529 -0.91971,0.309481 -1.38743,0.438801 -0.30973,0.0994 -0.63141,0.174414 -0.92835,0.309774 -0.31003,0.379609 -0.65112,0.735846 -0.93009,1.138828 -0.0241,0.03476 0.0397,0.07551 0.0673,0.107492 0.135,0.15612 0.36441,0.232686 0.55203,0.295086 0.38436,0.0967 0.77656,0.15105 1.17165,0.17503 0.33474,0.0133 0.66961,0.0114 1.00447,0.0121 0.29217,0.003 0.58483,0.009 0.87677,-0.005 0.40323,-0.0495 0.80651,-0.099 1.21109,-0.13635 0.30233,-0.0168 0.59932,-0.0796 0.90052,-0.10727 0.13121,-0.0145 0.26332,-0.0151 0.39512,-0.0181 0.31479,-0.381745 0.64439,-0.751744 0.94437,-1.145237 0.0129,-0.01693 -0.004,-0.361342 -0.003,-0.38531 0.003,-0.136814 0.0165,-0.266708 0.0284,-0.403016 0.0317,-0.367311 0.0625,-0.734923 0.0732,-1.103532 -0.003,-0.27952 0.0303,-0.556107 0.0805,-0.830514 0.021,-0.08991 0.0314,-0.181745 0.0453,-0.272915 0,0 -1.02988,1.008776 -1.02988,1.008776 v 0 c -0.004,0.08066 -0.0136,0.160608 -0.019,0.241152 -0.0225,0.273302 -0.0602,0.545632 -0.0493,0.820547 -0.009,0.358198 -0.0174,0.716653 -0.0547,1.07337 -0.0185,0.199678 -0.0319,0.402405 -0.0622,0.600747 -0.0796,0.521102 -0.77926,1.041522 0.82459,-0.817803 -0.002,0.01574 0.007,0.03649 -0.005,0.04722 -0.0166,0.01535 -0.33432,0.01643 -0.36137,0.04198 -0.31039,0.0557 -0.61999,0.118142 -0.93274,0.158777 -0.39352,0.05152 -0.78694,0.08312 -1.18314,0.103327 -0.29043,0.03616 -0.58411,0.0058 -0.8761,0.02294 -0.33425,0.0026 -0.66862,0.0054 -1.00282,-0.0029 -0.38357,-0.01275 -0.77278,-0.02697 -1.14107,-0.145923 -0.12674,-0.05302 -0.27016,-0.107616 -0.37275,-0.204205 -0.0194,-0.01831 -0.0378,-0.0401 -0.0462,-0.06543 -0.004,-0.01101 0.0213,-0.04074 0.0137,-0.03202 -0.29464,0.335565 -0.58384,0.675875 -0.87576,1.013814 0.24764,-0.23709 0.62567,-0.269004 0.93183,-0.396703 0.48018,-0.139102 0.95378,-0.297873 1.42395,-0.467902 0.60507,-0.241353 1.19277,-0.523844 1.78421,-0.796465 0.55221,-0.263419 1.09287,-0.561615 1.67251,-0.760463 0,0 0.78049,-1.186225 0.78049,-1.186225 z"
       id="path456"
       style="fill:#000000;stroke-width:0.264583" />
  </g>
</svg>
