<?xml version="1.0" standalone="no"?>
<!DOCTYPE svg PUBLIC "-//W3C//DTD SVG 20010904//EN"
 "http://www.w3.org/TR/2001/REC-SVG-20010904/DTD/svg10.dtd">
<svg version="1.0" xmlns="http://www.w3.org/2000/svg"
 width="978.000000pt" height="978.000000pt" viewBox="0 0 978.000000 978.000000"
 preserveAspectRatio="xMidYMid meet">
<metadata>
Created by potrace 1.11, written by Peter Selinger 2001-2013
</metadata>
<g transform="translate(0.000000,978.000000) scale(0.100000,-0.100000)"
fill="#000000" stroke="none">
<path d="M5675 8125 c-79 -20 -200 -58 -205 -66 -3 -3 -16 -10 -30 -14 -25 -8
-211 -97 -240 -115 -8 -5 -44 -26 -80 -46 -96 -54 -251 -170 -394 -294 -118
-102 -336 -336 -429 -460 -22 -30 -44 -57 -47 -60 -17 -13 -141 -214 -184
-297 -42 -82 -91 -201 -102 -243 -2 -8 -10 -39 -18 -69 -8 -30 -18 -77 -23
-105 -9 -65 -9 -272 1 -356 4 -36 9 -76 10 -90 2 -14 5 -32 9 -40 5 -15 20
-69 21 -82 1 -3 4 -10 9 -14 4 -4 7 -14 7 -21 0 -8 18 -50 39 -93 40 -82 94
-156 145 -199 15 -14 34 -31 41 -38 8 -7 16 -13 20 -13 3 0 16 -9 28 -21 31
-28 205 -115 272 -135 6 -1 35 -12 65 -24 30 -12 60 -23 65 -24 6 -2 24 -6 40
-11 17 -4 36 -12 43 -18 6 -5 12 -7 12 -4 0 3 17 1 38 -4 65 -16 69 -17 108
-23 22 -4 46 -8 54 -11 15 -4 123 -17 148 -18 19 -1 4 -11 -76 -53 -74 -40
-124 -66 -247 -133 -38 -21 -124 -67 -190 -101 -120 -63 -301 -169 -333 -195
-147 -118 -220 -187 -332 -315 -92 -105 -96 -108 -258 -278 -81 -84 -159 -175
-174 -203 -14 -27 -25 -49 -23 -49 2 0 -12 -31 -31 -70 -18 -38 -34 -74 -34
-80 0 -5 -4 -10 -10 -10 -5 0 -10 -6 -10 -13 0 -15 -221 -459 -240 -482 -7 -8
-10 -15 -7 -15 6 0 -44 -92 -81 -150 -9 -14 -17 -27 -17 -30 0 -7 -97 -176
-182 -317 -40 -67 -83 -148 -94 -180 -12 -32 -24 -65 -27 -73 -3 -8 -7 -23 -9
-33 -5 -27 -22 -57 -33 -58 -18 -2 -23 -4 -135 -41 -60 -20 -135 -44 -165 -52
-32 -9 -62 -25 -70 -37 -8 -12 -40 -53 -71 -93 -30 -39 -87 -112 -126 -163
l-72 -91 32 4 c18 3 39 8 47 11 18 8 15 7 65 18 22 4 45 9 50 11 6 2 19 5 30
8 11 2 32 9 47 15 16 6 28 9 28 6 0 -2 24 5 52 15 29 10 56 16 60 14 5 -3 8
-2 8 3 0 4 17 27 38 51 34 39 99 72 187 94 16 5 57 49 108 115 26 34 53 68 60
75 6 7 27 31 46 53 19 22 60 68 92 103 54 57 64 72 60 94 0 5 3 8 7 8 4 0 8 9
9 21 3 30 62 216 86 269 11 25 36 69 54 98 18 29 33 54 33 57 0 2 13 26 29 53
42 72 75 131 138 250 31 59 63 115 71 125 8 9 12 17 8 17 -3 0 7 24 23 53 16
28 49 92 74 140 l45 88 15 -33 c8 -18 24 -53 34 -78 11 -25 26 -62 34 -82 7
-21 17 -38 21 -38 4 0 8 -7 8 -15 0 -8 10 -31 22 -52 11 -21 30 -55 41 -75
l21 -38 -38 -122 c-20 -68 -39 -134 -42 -147 -3 -14 -7 -28 -10 -33 -3 -4 -7
-18 -10 -30 -3 -13 -7 -32 -9 -43 -3 -11 -25 -87 -50 -170 -25 -82 -48 -160
-51 -172 -2 -12 -9 -35 -15 -50 -6 -16 -10 -29 -10 -30 1 -2 1 -4 0 -5 0 -2
-2 -10 -4 -18 -2 -8 -20 -69 -40 -135 -20 -66 -47 -158 -61 -205 -13 -47 -27
-92 -31 -100 -3 -8 -7 -20 -9 -27 -1 -6 -14 -49 -29 -95 -15 -46 -28 -88 -29
-95 -4 -24 -25 -34 -78 -37 -16 0 -28 -4 -28 -8 0 -3 -6 -8 -14 -10 -8 -2 -55
-55 -105 -118 -50 -63 -97 -122 -104 -130 -23 -26 -107 -138 -107 -143 0 -6
230 52 245 61 5 3 15 7 21 8 39 6 93 49 194 155 63 66 152 159 198 207 77 81
111 139 126 210 2 10 6 24 9 32 3 8 11 35 17 60 7 25 25 85 41 134 16 48 26
92 23 97 -3 5 -1 9 4 9 5 0 9 6 10 13 0 6 17 71 37 142 20 72 38 140 41 153 2
12 16 64 30 115 14 50 26 97 28 102 1 6 13 49 26 98 27 101 18 101 119 -7 31
-32 71 -74 89 -93 18 -19 51 -69 74 -111 22 -42 46 -86 52 -97 19 -36 151
-216 196 -269 51 -60 158 -166 167 -166 6 0 16 6 22 14 10 12 18 9 46 -20 19
-19 36 -34 39 -34 2 0 22 15 43 33 22 17 52 41 67 52 16 11 33 25 40 31 6 5
38 30 71 53 94 69 151 132 158 177 4 22 9 50 11 64 20 119 27 326 12 348 -5 7
-5 12 0 12 5 0 9 71 10 158 1 146 6 257 19 427 8 101 13 149 15 155 1 3 2 12
1 20 -1 11 17 22 51 34 195 68 318 183 336 314 14 103 -7 341 -43 500 -15 66
-42 172 -65 257 -12 44 -23 89 -24 100 -1 11 -5 25 -8 31 -4 6 -10 26 -13 44
-3 18 -8 37 -11 42 -3 5 -8 24 -11 41 -7 44 -9 44 -41 14 -16 -15 -31 -27 -35
-27 -5 0 0 70 6 76 2 2 28 5 157 20 69 8 99 14 170 30 36 9 72 17 81 19 45 9
184 57 219 75 22 11 40 17 40 13 0 -5 4 -3 8 2 9 12 105 61 110 57 3 -2 8 0
11 5 3 4 26 22 50 38 67 45 175 154 316 319 22 26 56 65 75 86 19 22 40 45 45
52 50 63 101 124 108 126 4 2 7 8 7 13 0 6 9 19 20 31 42 45 79 158 105 323 9
59 5 335 -6 335 -3 0 -6 6 -6 13 -1 27 -15 100 -23 123 -5 13 -7 24 -4 24 2 0
-2 13 -10 29 -9 16 -13 31 -10 33 3 3 0 18 -7 34 -6 16 -15 38 -19 49 -4 11
-20 46 -34 78 -14 32 -26 61 -26 65 0 5 -5 13 -12 20 -6 6 -13 17 -14 24 -1 7
-16 37 -33 66 -17 29 -31 55 -31 58 0 15 -190 210 -259 264 -24 19 -48 40 -55
45 -24 22 -156 116 -256 183 -139 92 -337 193 -379 192 -9 -1 -27 -15 -41 -32
-14 -16 -36 -43 -50 -58 -58 -64 -159 -178 -191 -215 -19 -22 -43 -47 -53 -56
-18 -15 -13 -17 75 -48 105 -36 299 -128 299 -142 0 -5 4 -9 10 -9 8 0 124
-76 209 -137 170 -122 314 -269 382 -388 40 -72 109 -215 109 -228 0 -7 4 -17
10 -23 5 -5 11 -18 13 -29 1 -11 5 -25 9 -30 7 -11 37 -148 46 -210 13 -89 4
-357 -13 -385 -2 -4 -7 -21 -10 -39 -6 -37 -26 -76 -73 -144 -27 -39 -30 -48
-18 -53 9 -3 24 -3 34 0 10 4 8 -2 -8 -14 -28 -24 -231 -128 -257 -134 -10 -1
-31 -9 -48 -15 -16 -7 -38 -14 -48 -16 -9 -2 -21 -6 -25 -9 -5 -3 -19 -7 -33
-10 -13 -3 -42 -10 -64 -16 -63 -17 -78 -20 -115 -26 -19 -3 -54 -9 -77 -14
-24 -4 -63 -7 -88 -6 -25 0 -45 -2 -45 -5 0 -7 -283 -4 -355 4 -342 38 -646
154 -800 303 -63 61 -110 124 -142 189 -66 130 -78 174 -98 340 -2 17 -4 30
-5 30 -1 0 -3 43 -4 95 -2 116 19 278 48 365 2 6 7 25 11 43 4 18 12 35 16 38
5 3 9 11 9 18 0 8 10 35 22 62 12 27 23 51 24 54 1 3 5 15 9 28 4 12 11 22 16
22 5 0 9 5 9 11 0 15 110 199 132 221 10 10 18 21 18 26 1 20 154 165 177 167
10 0 38 13 63 27 88 51 192 108 196 108 2 0 29 12 61 26 109 47 110 48 193 71
30 9 66 17 80 18 43 4 59 15 111 84 29 36 58 73 65 81 15 16 79 95 104 126 8
11 32 41 54 67 21 27 37 49 35 51 -2 2 -26 -2 -54 -9z m1015 -2228 c0 -1 -28
-29 -61 -62 -69 -67 -69 -56 0 18 37 39 61 57 61 44z m-1495 -823 c-66 -59
-129 -112 -150 -128 -18 -13 -20 -27 -21 -133 -1 -102 -11 -314 -19 -408 -2
-16 -6 -70 -10 -120 -3 -49 -8 -103 -10 -120 -2 -16 -7 -68 -10 -115 -4 -47
-10 -88 -13 -92 -7 -7 -98 -32 -147 -41 -11 -2 -27 -7 -35 -10 -8 -4 -27 -9
-42 -12 -52 -10 -73 -15 -198 -50 -116 -32 -126 -34 -137 -18 -7 9 -13 26 -14
37 0 12 -3 30 -6 41 -2 11 -5 36 -6 55 -2 25 -8 38 -26 46 -49 25 -108 -6
-178 -93 -21 -27 -41 -49 -45 -51 -5 -2 -8 -8 -8 -14 0 -11 -29 -42 -34 -37
-9 11 -106 294 -106 309 0 8 21 56 46 107 43 88 49 95 107 130 125 73 185 107
337 185 85 45 159 85 165 89 5 5 17 9 26 9 10 0 19 3 21 8 2 4 46 27 99 51 92
41 100 47 150 114 29 40 57 77 62 82 4 6 18 24 30 41 12 17 46 63 75 103 52
68 55 71 95 71 l42 -1 -40 -35z m-269 -1491 c-3 -21 -8 -65 -12 -98 -9 -96
-13 -130 -15 -130 -1 0 -3 -16 -4 -35 -2 -19 -6 -60 -9 -90 -4 -30 -8 -77 -11
-105 -3 -27 -7 -75 -10 -105 -5 -47 -9 -94 -14 -159 -1 -17 -1 -17 -96 94 -33
38 -66 76 -73 83 -18 20 -69 95 -72 107 -3 13 -14 40 -33 88 -9 20 -16 39 -17
42 -1 7 -9 32 -17 53 -7 18 -11 35 -16 55 -1 6 -5 17 -8 22 -9 15 -32 115 -27
120 2 2 17 6 33 9 17 2 30 5 30 6 0 1 7 3 15 5 8 1 69 14 135 28 128 28 205
44 218 46 4 1 6 -16 3 -36z"/>
</g>
</svg>
