<?xml version="1.0" encoding="UTF-8" standalone="no"?>
<svg
   xmlns:dc="http://purl.org/dc/elements/1.1/"
   xmlns:cc="http://creativecommons.org/ns#"
   xmlns:rdf="http://www.w3.org/1999/02/22-rdf-syntax-ns#"
   xmlns:svg="http://www.w3.org/2000/svg"
   xmlns="http://www.w3.org/2000/svg"
   xmlns:sodipodi="http://sodipodi.sourceforge.net/DTD/sodipodi-0.dtd"
   xmlns:inkscape="http://www.inkscape.org/namespaces/inkscape"
   inkscape:export-ydpi="150"
   inkscape:export-xdpi="150"
   inkscape:export-filename="/Users/RagavSachdeva/Documents/GitHub/ragavsachdeva.github.io/assets/img/prof_pic.png"
   sodipodi:docname="prof_pic.svg"
   inkscape:version="1.0 (4035a4f, 2020-05-01)"
   id="svg8"
   version="1.1"
   viewBox="0 0 124.81823 129.42973"
   height="129.42973mm"
   width="124.81823mm">
  <defs
     id="defs2">
    <rect
       id="rect89"
       height="57.328663"
       width="79.713463"
       y="30.305807"
       x="98.095116" />
  </defs>
  <sodipodi:namedview
     fit-margin-bottom="10"
     fit-margin-right="10"
     fit-margin-left="10"
     fit-margin-top="10"
     inkscape:window-maximized="0"
     inkscape:window-y="0"
     inkscape:window-x="0"
     inkscape:window-height="800"
     inkscape:window-width="1280"
     showgrid="false"
     inkscape:document-rotation="0"
     inkscape:current-layer="layer1"
     inkscape:document-units="mm"
     inkscape:cy="243.28639"
     inkscape:cx="207.50676"
     inkscape:zoom="0.97053503"
     inkscape:pageshadow="2"
     inkscape:pageopacity="0.0"
     borderopacity="1.0"
     bordercolor="#666666"
     pagecolor="#ffffff"
     id="base" />
  <metadata
     id="metadata5">
    <rdf:RDF>
      <cc:Work
         rdf:about="">
        <dc:format>image/svg+xml</dc:format>
        <dc:type
           rdf:resource="http://purl.org/dc/dcmitype/StillImage" />
        <dc:title></dc:title>
      </cc:Work>
    </rdf:RDF>
  </metadata>
  <g
     transform="translate(-57.514928,2.8505955)"
     id="layer1"
     inkscape:groupmode="layer"
     inkscape:label="Layer 1">
    <path
       inkscape:export-ydpi="150"
       inkscape:export-xdpi="150"
       inkscape:export-filename="/Users/RagavSachdeva/Documents/GitHub/ragavsachdeva.github.io/assets/img/prof_pic.svg.png"
       d="m 131.07594,18.876267 c -3.34879,0.636593 -6.27696,2.242526 -9.07478,3.899005 -4.32744,2.990053 -8.09617,6.70194 -11.00738,10.801101 -0.9761,1.374405 -1.39182,2.204688 -2.19831,3.643811 -0.82959,1.74392 -1.50178,3.583232 -1.75807,5.467639 -0.26496,1.948231 -0.0494,3.889412 0.17722,5.827633 0.50256,2.035169 1.2677,4.151485 2.93526,5.720671 2.12113,1.996005 4.91871,2.887846 7.74304,3.8136 3.77093,0.959199 7.68098,1.203846 11.55409,0.595668 2.11573,-0.332224 2.90174,-0.645887 4.89574,-1.253206 1.73519,-0.812615 2.70803,-1.142662 4.16723,-2.313851 0.61307,-0.492072 1.15882,-1.048757 1.6668,-1.625013 1.85454,-2.103829 3.7832,-4.169076 5.41538,-6.409158 0.78015,-1.070723 1.04184,-3.25182 1.26413,-4.444156 0.27128,-4.512903 -0.88477,-8.228671 -3.20626,-12.204649 -1.91225,-2.580873 -4.65453,-4.547918 -7.39892,-6.421718 -1.6142,-1.063784 -3.3086,-2.050369 -5.20658,-2.676722 0,0 -4.55095,5.088586 -4.55095,5.088586 v 0 c 1.86837,0.574017 3.68447,1.230651 5.25426,2.323705 2.72245,1.754621 5.43101,3.611145 7.29877,6.118273 2.39995,3.855512 3.51034,7.328722 3.06696,11.771688 -0.16451,0.731062 -0.25938,1.476772 -0.49354,2.193191 -0.23627,0.72283 -1.75972,2.241991 -0.91281,2.109469 1.31407,-0.20563 1.76623,-1.794402 2.89338,-2.419394 0.69116,-0.383244 -0.96604,1.161718 -1.54193,1.670028 -1.40008,1.23577 -2.30373,1.562893 -4.0058,2.42905 -1.90664,0.649749 -2.8181,1.035039 -4.84931,1.415338 -3.78505,0.708664 -7.63566,0.532012 -11.35798,-0.360439 -2.29238,-0.741255 -3.28959,-0.907646 -5.29051,-2.168841 -2.76085,-1.740182 -4.09401,-4.297664 -4.606,-7.168823 -0.15269,-1.478959 -0.29246,-2.299866 -0.22523,-3.790174 0.11343,-2.514627 0.88199,-4.956276 2.04239,-7.249482 0.83839,-1.463638 1.16883,-2.138366 2.20056,-3.530468 0.44394,-0.599007 2.02873,-2.219319 1.41668,-1.746778 -1.0012,0.773 -1.84125,1.704056 -2.6033,2.66293 -0.94328,1.186915 4.27951,-4.319038 3.62844,-2.956632 2.5241,-1.509506 5.25834,-3.061801 8.34747,-3.458859 0,0 4.31986,-5.353023 4.31986,-5.353023 z"
       id="path22"
       style="fill:#000000;stroke-width:0.476195" />
    <path
       inkscape:export-ydpi="150"
       inkscape:export-xdpi="150"
       inkscape:export-filename="/Users/RagavSachdeva/Documents/GitHub/ragavsachdeva.github.io/assets/img/prof_pic.svg.png"
       d="m 121.60207,61.446608 c 0.17204,3.925425 -0.34222,7.837484 -0.64003,11.748403 -0.38074,4.337266 -0.97114,8.655849 -1.40608,12.98882 -0.23767,2.399049 -0.37772,4.804524 -0.47744,7.210652 0.0301,1.05214 -0.15951,2.07292 -0.30187,3.11195 -0.007,0.0451 -0.11611,0.80684 -0.17187,0.90901 -0.0397,0.0727 -0.26859,0.21976 -0.20956,0.1578 1.57462,-1.6515 3.18413,-3.27742 4.75862,-4.92902 0.16786,-0.17609 -0.40513,-0.291224 -0.6034,-0.441253 -2.29132,-2.080637 -4.22022,-4.425684 -6.20498,-6.725594 -1.97288,-2.173804 -4.00752,-4.297693 -5.69265,-6.65405 -1.34247,-2.030884 -2.10772,-4.289915 -2.80579,-6.53979 -0.35304,-0.534139 -0.0671,-1.624233 -0.71663,-2.022836 -0.16655,-0.102218 -0.36415,-0.158962 -0.54623,-0.238443 -1.70284,1.781149 -3.47632,3.512518 -5.10854,5.343444 -0.19035,0.213519 -0.21829,0.506595 -0.33126,0.758604 -0.16923,0.377537 -0.34368,0.753274 -0.51532,1.129981 -0.786097,1.725311 -1.639785,3.419436 -2.495715,5.119134 -1.658536,3.377854 -3.527481,6.668092 -5.475246,9.924029 -1.408846,1.870144 -1.479579,4.162584 -2.453848,6.174554 4.215318,-4.66145 5.569205,-5.25852 2.369523,-3.3935 0,0 -3.807708,5.097277 -3.807708,5.097277 v 0 c 4.027883,-1.509257 1.14923,-0.197807 6.806397,-6.086597 0.639863,-1.993377 0.964773,-4.073307 2.228548,-5.878919 1.852549,-3.232418 3.620029,-6.499693 5.278049,-9.812296 0.90421,-1.777109 1.8039,-3.557372 2.74497,-5.319923 1.31242,-2.458046 4.50497,-6.157532 -3.34382,2.558266 -0.57154,-0.623456 -0.28973,-0.378203 -0.18185,-0.109805 0.18658,0.464163 0.33201,0.941623 0.56771,1.390385 0.95877,2.199821 1.71916,4.480147 3.05787,6.536222 1.73784,2.332547 3.89865,4.370319 5.88563,6.53884 2.03906,2.328207 3.96341,4.72943 5.95208,7.09042 0.009,0.0101 0.99267,1.11677 1.09315,1.03722 5.3887,-4.26634 4.84661,-3.06283 5.22781,-6.12915 0.17011,-1.034288 0.28449,-2.053905 0.16607,-3.101416 -0.0299,-2.296192 0.009,-4.592603 0.16428,-6.885548 0.30483,-4.264309 0.81909,-8.514774 1.1584,-12.777127 0.37871,-4.125264 0.81959,-8.245921 1.27844,-12.364774 0,0 -5.2477,4.584984 -5.2477,4.584984 z"
       id="path24"
       style="fill:#000000;stroke-width:0.476195" />
    <path
       inkscape:export-ydpi="150"
       inkscape:export-xdpi="150"
       inkscape:export-filename="/Users/RagavSachdeva/Documents/GitHub/ragavsachdeva.github.io/assets/img/prof_pic.svg.png"
       d="m 92.035145,95.879773 c -1.899236,0.82331 -3.919781,1.38769 -5.930775,1.95744 0,0 -3.86818,4.959207 -3.86818,4.959207 v 0 c 1.882914,-0.48826 3.783515,-0.93282 5.634088,-1.51045 0,0 4.164867,-5.406197 4.164867,-5.406197 z"
       id="path26"
       style="fill:#000000;stroke-width:0.476195" />
    <path
       inkscape:export-ydpi="150"
       inkscape:export-xdpi="150"
       inkscape:export-filename="/Users/RagavSachdeva/Documents/GitHub/ragavsachdeva.github.io/assets/img/prof_pic.svg.png"
       d="m 122.19862,92.578903 c -2.1401,-1.209537 -3.51339,-3.185063 -4.74156,-5.07972 -1.49316,-2.49304 -2.31957,-5.249817 -3.10219,-7.966285 -0.5003,-1.602294 -0.97857,-3.213676 -1.24184,-4.860478 -0.21354,-0.1362 0.10145,-0.721372 -0.0468,-0.870618 -1.75884,-1.770893 -3.92282,3.211509 -5.69191,4.974591 -1.35799,3.942154 -2.47568,7.936425 -3.60465,11.93221 -1.05156,3.55648 -2.07898,7.11952 -3.18188,10.663957 -0.53324,1.47648 -0.844037,3.04185 -1.607124,4.44998 -0.952753,1.75812 -4.336013,4.8762 3.683604,-3.77719 -1.20868,0.9812 -2.776389,1.32622 -4.331022,1.66164 0,0 -4.134327,5.2389 -4.134327,5.2389 v 0 c 1.603664,-0.35978 3.220619,-0.64841 4.654687,-1.42028 1.722122,-1.8086 3.499472,-3.57813 5.166372,-5.4258 0.15781,-0.17493 0.20304,-0.40907 0.28727,-0.61929 0.56466,-1.40936 0.82255,-2.903287 1.35627,-4.321177 0.99396,-3.44927 1.83689,-6.932724 2.82636,-10.38364 1.1419,-4.214822 2.28827,-8.464359 4.37738,-12.414482 -1.62341,1.483078 -3.15133,3.050698 -4.87023,4.449237 -0.0994,0.0809 -0.1667,-0.192608 -0.27855,-0.260039 -0.0156,-0.0094 0.23399,0.83568 0.21716,0.824927 0.45506,1.553097 1.0827,3.065081 1.58607,4.606199 0.88314,2.742006 1.66204,5.559144 3.24045,8.072473 1.33856,1.996795 2.80365,3.992315 4.68884,5.629695 0,0 4.74759,-5.10481 4.74759,-5.10481 z"
       id="path28"
       style="fill:#000000;stroke-width:0.476195" />
    <path
       inkscape:export-ydpi="150"
       inkscape:export-xdpi="150"
       inkscape:export-filename="/Users/RagavSachdeva/Documents/GitHub/ragavsachdeva.github.io/assets/img/prof_pic.svg.png"
       d="m 123.78576,58.332814 c -3.51497,2.067102 -7.21465,3.875137 -10.77584,5.879118 -3.48667,2.043993 -5.62176,4.766364 -8.24544,7.803116 -0.85955,0.994863 -1.75967,3.515905 -2.24921,4.725873 -0.19385,0.499572 -0.3877,0.999144 -0.58156,1.498716 0,0 5.06032,-4.147885 5.06032,-4.147885 v 0 c 0.17481,-0.475981 0.34964,-0.951956 0.52446,-1.427934 0.51153,-1.19964 0.83934,-2.072003 1.50432,-3.216943 0.2862,-0.492754 1.41666,-1.806494 0.94695,-1.436477 -1.26267,0.994689 -2.26874,2.213291 -3.3698,3.345114 -0.37958,0.390194 0.76808,-0.777388 1.20446,-1.119248 0.48353,-0.378792 1.03082,-0.690415 1.54622,-1.035618 3.33468,-1.972479 6.77789,-3.788914 10.36328,-5.394906 0,0 4.07184,-5.472926 4.07184,-5.472926 z"
       id="path42"
       style="fill:#000000;stroke-width:0.476195" />
    <path
       inkscape:export-ydpi="150"
       inkscape:export-xdpi="150"
       inkscape:export-filename="/Users/RagavSachdeva/Documents/GitHub/ragavsachdeva.github.io/assets/img/prof_pic.svg.png"
       d="m 122.28644,64.054546 c 0.84405,1.841461 1.30205,3.809174 1.76932,5.74601 0.36682,1.624417 0.56947,3.27225 0.61187,4.926672 0.0409,0.720708 -0.0231,1.440099 -0.041,2.159856 -2.5884,0.498842 0.24286,0.0032 4.23177,-4.718698 0.17951,-0.212488 -0.51658,0.277217 -0.79242,0.385232 -0.36024,0.141062 -0.73673,0.248574 -1.11037,0.359891 -1.03959,0.309709 -1.48918,0.400866 -2.5502,0.653154 -2.54315,0.440995 -5.03668,1.048303 -7.52253,1.685103 -1.31235,0.320967 -2.59978,0.712292 -3.89979,1.068707 -0.37611,0.08857 -0.75253,0.16961 -1.14288,0.180422 -0.39149,-0.0074 -0.81189,0.161233 -1.162,0.325079 -0.25874,0.04381 -0.49628,0.141836 -0.73559,0.233573 0,0 -4.16684,5.535653 -4.16684,5.535653 v 0 c 0.19833,-0.09875 0.40151,-0.190236 0.59296,-0.299149 0.30112,-0.02053 0.89968,-0.158138 1.0073,-0.392232 0.4657,-0.01178 0.92892,-0.0291 1.37337,-0.166549 1.39418,-0.351201 2.69093,-0.963313 4.09328,-1.298812 2.46147,-0.733518 4.97655,-1.305261 7.52773,-1.748948 3.71018,-0.812683 9.75273,-1.642137 9.6176,-6.479616 -0.005,-0.692956 -0.085,-1.38576 -0.12331,-2.077518 -0.18215,-1.623562 -0.42794,-3.237388 -0.8814,-4.823578 -0.50442,-2.005432 -1.0156,-4.009721 -1.54925,-6.009296 0,0 -5.14761,4.755112 -5.14761,4.755112 z"
       id="path107"
       style="fill:#000000;stroke-width:0.476195" />
  </g>
</svg>
