<?xml version="1.0" encoding="UTF-8" standalone="no"?>
<svg
   xmlns:dc="http://purl.org/dc/elements/1.1/"
   xmlns:cc="http://creativecommons.org/ns#"
   xmlns:rdf="http://www.w3.org/1999/02/22-rdf-syntax-ns#"
   xmlns:svg="http://www.w3.org/2000/svg"
   xmlns="http://www.w3.org/2000/svg"
   xmlns:sodipodi="http://sodipodi.sourceforge.net/DTD/sodipodi-0.dtd"
   xmlns:inkscape="http://www.inkscape.org/namespaces/inkscape"
   width="68.017433mm"
   height="93.938721mm"
   viewBox="0 0 68.017432 93.938721"
   version="1.1"
   id="svg8"
   inkscape:version="1.0 (4035a4f, 2020-05-01)"
   sodipodi:docname="bayesian-reasoning_5.svg"
   inkscape:export-filename="bayesian-reasoning_4.png"
   inkscape:export-xdpi="150"
   inkscape:export-ydpi="150">
  <defs
     id="defs2">
    <rect
       x="98.095116"
       y="30.305807"
       width="59.242321"
       height="55.867722"
       id="rect89" />
  </defs>
  <sodipodi:namedview
     id="base"
     pagecolor="#ffffff"
     bordercolor="#666666"
     borderopacity="1.0"
     inkscape:pageopacity="0.0"
     inkscape:pageshadow="2"
     inkscape:zoom="1.0146591"
     inkscape:cx="11.546636"
     inkscape:cy="104.35724"
     inkscape:document-units="mm"
     inkscape:current-layer="layer1"
     inkscape:document-rotation="0"
     showgrid="false"
     inkscape:window-width="1280"
     inkscape:window-height="800"
     inkscape:window-x="0"
     inkscape:window-y="0"
     inkscape:window-maximized="0"
     fit-margin-top="10"
     fit-margin-left="10"
     fit-margin-right="10"
     fit-margin-bottom="10" />
  <metadata
     id="metadata5">
    <rdf:RDF>
      <cc:Work
         rdf:about="">
        <dc:format>image/svg+xml</dc:format>
        <dc:type
           rdf:resource="http://purl.org/dc/dcmitype/StillImage" />
        <dc:title></dc:title>
      </cc:Work>
    </rdf:RDF>
  </metadata>
  <g
     inkscape:label="Layer 1"
     inkscape:groupmode="layer"
     id="layer1"
     transform="translate(-126.27561,-9.8146795)">
    <text
       xml:space="preserve"
       id="text87"
       style="font-style:normal;font-weight:normal;font-size:5.64444000000000035px;line-height:1.25;font-family:sans-serif;white-space:pre;shape-inside:url(#rect89);fill:#000000;fill-opacity:1;stroke:none;"
       transform="translate(60.292996,-11.226324)"><tspan
         x="98.095703"
         y="35.456235"><tspan
           style="font-style:normal;font-variant:normal;font-weight:normal;font-stretch:normal;font-family:'Comic Sans MS';-inkscape-font-specification:'Comic Sans MS'">Uh.. sure..</tspan></tspan></text>
    <path
       style="fill:none;stroke:#000000;stroke-width:0.264583px;stroke-linecap:butt;stroke-linejoin:miter;stroke-opacity:1"
       d="m 167.92682,27.767927 c -2.61555,5.177496 -7.96951,7.616583 -14.10353,9.275604"
       id="path117"
       sodipodi:nodetypes="cc" />
    <path
       d="m 148.16061,36.307297 c -0.48433,-0.140359 -0.96485,-0.257816 -1.47008,-0.272524 -0.79046,0.05141 -1.54523,0.280697 -2.29437,0.521359 -1.11054,0.341135 -2.1474,0.86301 -3.12173,1.489149 -1.55725,1.220068 -2.91468,2.756773 -3.88672,4.481923 -0.54652,1.0698 -0.92593,2.202016 -1.07692,3.392903 -0.0701,0.786653 -0.0402,1.590428 0.13282,2.363549 0.0874,0.39049 0.21634,0.731144 0.3462,1.108059 0.54536,1.222031 1.31475,1.865842 2.45435,2.512669 1.38866,0.774824 2.95563,1.011192 4.50038,1.267454 0.77642,0.09433 1.55327,0.280787 2.34025,0.210204 0.38445,-0.03448 0.57684,-0.09073 0.95086,-0.175075 0.86729,-0.24189 1.73655,-0.53426 2.45067,-1.103551 0.17645,-0.140663 0.33363,-0.303937 0.50044,-0.455906 0.68126,-0.834324 1.39422,-1.643734 2.04378,-2.502971 0.15677,-0.207378 0.25851,-0.451819 0.36814,-0.687541 0.364,-0.782744 0.63545,-1.625825 0.76862,-2.479067 0.0451,-0.289356 0.0613,-0.582501 0.0919,-0.873752 0.0668,-1.518761 -0.0622,-3.034329 -0.43078,-4.508537 -0.20563,-0.748091 -0.59184,-1.404599 -1.12181,-1.96461 -0.43202,-0.390512 -0.93022,-0.701749 -1.40718,-1.034291 -0.39134,-0.267544 -0.71879,-0.612098 -1.10486,-0.88546 -0.21664,-0.179115 -0.46505,-0.303993 -0.73903,-0.363183 -0.18099,-0.03662 -0.36631,-0.03893 -0.55013,-0.04324 -0.12244,-0.0098 -0.2529,-0.07037 -0.37145,-0.112234 0,0 -1.76633,2.290326 -1.76633,2.290326 v 0 c 0.15393,0.03633 0.29896,0.08749 0.43723,0.165806 0.17368,-0.0063 0.34769,-0.01143 0.52137,-0.0013 0.24398,0.02582 0.46699,0.101611 0.66717,0.248767 0.3886,0.269378 0.77241,0.54446 1.15238,0.826299 0.46048,0.329025 0.92791,0.651865 1.35924,1.018752 0.51594,0.481446 0.8895,1.083696 1.13497,1.744776 0.44824,1.392478 0.58223,2.849319 0.48949,4.308798 -0.0355,0.284252 -0.0555,0.570862 -0.10643,0.852757 -0.15473,0.856395 -0.4512,1.691111 -0.85587,2.460953 -0.12425,0.236389 -0.61731,0.857975 -0.41212,0.687041 0.45122,-0.375915 0.77957,-0.878594 1.16936,-1.31789 -0.14898,0.147381 -0.28738,0.306277 -0.44693,0.442138 -0.67104,0.571396 -1.49579,0.869587 -2.33242,1.100576 -1.09614,0.292931 -2.20405,0.346507 -3.33179,0.189699 -1.52176,-0.187513 -3.01127,-0.531792 -4.36236,-1.287124 -1.02429,-0.621356 -1.80543,-1.304227 -2.28265,-2.43141 -0.37401,-1.093078 -0.56749,-2.2176 -0.40267,-3.37457 0.18518,-1.170413 0.57742,-2.287008 1.15349,-3.324989 0.48832,-0.785718 1.85544,-2.483607 -0.66366,0.598143 -0.1166,0.14264 0.25064,-0.270147 0.3797,-0.401614 0.43109,-0.439107 0.35828,-0.357986 0.83454,-0.750546 0.93929,-0.642143 1.94115,-1.195347 3.04321,-1.504907 0.7019,-0.21163 1.41733,-0.357963 2.14402,-0.455719 0.4649,-0.003 0.92798,0.09129 1.35325,0.283102 0,0 1.75043,-2.253112 1.75043,-2.253112 z"
       id="path505"
       style="fill:#000000;stroke-width:0.264583" />
    <path
       d="m 143.07581,53.719137 c 0.18185,1.156152 -0.036,2.320472 -0.22826,3.45999 -0.33477,1.760548 -0.78998,3.492794 -1.1054,5.257089 -0.36109,1.781032 -0.70959,3.565585 -1.11512,5.337217 -0.32092,1.31858 -0.71645,2.618393 -0.9651,3.953391 -0.21521,1.244706 -0.18155,2.50893 -0.18257,3.766137 -0.0224,1.423088 0.232,2.753334 0.65039,4.104653 0.37012,1.044676 0.77511,2.076691 1.13456,3.12524 0.37617,1.278644 0.54297,2.603698 0.63628,3.929396 0.081,1.071766 0.0866,2.146649 0.0841,3.22082 -0.008,0.752973 -0.009,1.503313 -0.11104,2.250025 0.0104,0.255955 -0.15621,0.507627 -0.14698,0.762066 0.002,0.04281 0.052,0.228433 0.0646,0.276601 0.24074,0.377788 0.80702,0.338521 1.20844,0.408442 0.0771,0.02117 0.6137,0.109159 0.61945,0.1832 0,0 1.87296,-2.216438 1.87296,-2.216438 v 0 c -0.24486,-0.165661 -0.53126,-0.141309 -0.81512,-0.190865 -0.17011,-0.03168 -0.8297,-0.09303 -0.89507,-0.257839 -0.0398,-0.294312 0.0778,-0.599056 0.065,-0.895509 0.0612,-0.72916 0.0187,-1.458505 0.005,-2.189292 -0.0161,-1.065435 -0.0309,-2.133663 -0.14608,-3.193896 -0.18269,-1.329796 -0.32535,-2.674816 -0.6667,-3.974783 -0.10648,-0.358439 -0.2094,-0.729829 -0.34119,-1.080632 -0.25507,-0.678964 -0.58882,-1.328621 -0.81737,-2.018438 -0.422,-1.295892 -0.65138,-2.638991 -0.63353,-4.006133 0.0296,-1.269373 0.0778,-2.544228 0.27974,-3.79975 0.24417,-1.29491 0.58704,-2.567477 0.87191,-3.853606 0.36355,-1.75842 0.67663,-3.526612 1.0491,-5.28326 0.35037,-1.769894 0.81303,-3.515718 1.13669,-5.291484 0.22962,-1.263746 0.45119,-2.528719 0.52208,-3.813088 0,0 -2.03074,2.030746 -2.03074,2.030746 z"
       id="path543"
       style="fill:#000000;stroke-width:0.264583" />
    <path
       d="m 139.78499,71.19825 c 0.43625,0.698227 0.96562,1.337405 1.46398,1.992667 0.73178,1.0151 1.32999,2.118881 1.88023,3.240442 0.53697,1.107366 0.6566,2.104985 0.52865,3.311504 -0.0341,0.170984 -0.057,0.344572 -0.10221,0.512947 -0.15199,0.565859 -0.39616,1.115468 -0.59874,1.664028 -0.0922,0.249706 -0.35878,1.00058 -0.44658,1.247119 -0.4398,1.085297 -0.80391,2.199677 -1.23664,3.287268 -0.40848,0.887241 -0.74849,1.801926 -1.11779,2.705796 -0.23745,0.616945 -0.48098,1.226471 -0.79223,1.810276 -0.0979,0.14441 -0.11436,0.327459 -0.18015,0.48251 -0.0432,0.10169 -0.12562,0.167929 -0.16721,0.27327 -0.016,0.166476 -0.0924,0.328634 -0.079,0.496734 0.0404,0.260009 0.49429,0.362963 0.70767,0.435494 0.0375,0.01971 0.3579,0.07398 0.29956,0.176508 0.12621,0.20224 0.22338,0.43307 0.32382,0.653881 0.0397,0.08844 0.0592,0.06761 -0.015,0.08425 0,0 2.0459,-2.074939 2.0459,-2.074939 v 0 c -0.0677,-0.104323 -0.0361,-0.05641 -0.0947,-0.143966 -0.12715,-0.205959 -0.21849,-0.42314 -0.28974,-0.6546 -0.12515,-0.190667 -0.29979,-0.275 -0.52565,-0.298169 -0.1275,-0.03419 -0.34669,-0.06943 -0.42641,-0.193392 -0.01,-0.01503 0.10739,0.101573 0.0488,-0.02217 0.0417,-0.135848 0.0487,-0.283716 0.13544,-0.403188 0.13285,-0.217012 0.15846,-0.483182 0.28837,-0.704184 0.25168,-0.576098 0.47432,-1.162912 0.69599,-1.751065 0.33715,-0.893318 0.68108,-1.783318 1.06462,-2.657925 0.40675,-1.071067 0.75695,-2.163479 1.16891,-3.233025 0.42623,-1.169665 0.96322,-2.317748 1.17726,-3.549955 0.0511,-1.169434 -0.14017,-2.285079 -0.70314,-3.327442 -0.55356,-1.143982 -1.13577,-2.278025 -1.87107,-3.318457 -0.34575,-0.49557 -0.96358,-1.324671 -1.15303,-1.896134 -0.023,-0.06939 -0.0272,-0.143658 -0.0408,-0.21549 0,0 -1.98929,2.069423 -1.98929,2.069423 z"
       id="path549"
       style="fill:#000000;stroke-width:0.264583" />
    <path
       d="m 142.78397,56.592692 c -0.56449,0.589224 -1.35433,1.875361 0.82955,-0.981983 0.16298,-0.213236 -0.36507,0.393637 -0.55373,0.584523 -0.36111,0.36536 -0.7963,0.765553 -1.1719,1.116793 -0.74409,0.726144 -1.50566,1.431975 -2.28163,2.123704 -1.00848,0.863786 -1.78741,1.925664 -2.64956,2.940852 -0.10277,0.213453 0.16579,0.302043 0.28975,0.41352 0.30741,0.349785 0.36942,0.901155 0.44921,1.345189 0.15074,0.851131 0.20126,1.715127 0.31858,2.569972 0.06,0.633074 0.2083,1.251464 0.30159,1.879442 0.0525,0.312711 0.0417,0.629811 0.0581,0.944969 0.0151,0.469953 0.11525,0.930082 0.15494,1.399157 -0.0122,0.388622 0.0784,0.754996 0.15552,1.131268 0,0 1.96214,-2.04394 1.96214,-2.04394 v 0 c -0.0748,-0.357566 -0.11772,-0.717204 -0.17014,-1.078529 -0.0665,-0.476832 -0.11294,-0.955527 -0.085,-1.437426 -0.003,-0.313137 -0.0903,-0.614722 -0.1377,-0.923287 -0.12663,-0.60188 -0.27708,-1.198312 -0.35432,-1.809708 -0.12128,-0.857046 -0.22362,-1.717141 -0.32191,-2.577044 -0.0832,-0.536218 -0.1225,-1.14726 -0.4535,-1.596692 -0.028,-0.02964 -0.0546,-0.06068 -0.084,-0.08893 -0.12109,-0.116274 0.0184,0.09459 0.0847,-0.01595 -3.33214,3.913865 -1.80693,2.060742 -0.95168,1.262817 0.82064,-0.768697 1.63471,-1.543743 2.42241,-2.34641 0.32758,-0.305395 0.84482,-0.786162 1.16988,-1.095031 0.17676,-0.167957 0.36624,-0.323921 0.52723,-0.507042 0.70648,-0.803585 1.38335,-1.632731 2.0731,-2.450711 0.37338,-0.442796 0.26804,-0.309541 0.54654,-0.69899 0,0 -2.1282,1.93947 -2.1282,1.93947 z"
       id="path555"
       style="fill:#000000;stroke-width:0.264583" />
    <path
       d="m 142.68345,55.680908 c 0.0963,0.802804 0.0781,1.617681 0.0767,2.42547 0.01,0.845807 0.0435,1.699646 0.15635,2.538942 0.0854,0.616394 0.24204,1.21902 0.32698,1.836097 0.0837,0.657926 0.0765,1.320419 0.0782,1.982044 0.054,0.835816 -0.10413,1.225994 -0.46984,1.962134 -0.35323,0.739013 -0.81486,1.421104 -1.32206,2.06229 -0.17787,0.212592 -0.28418,0.469646 -0.41343,0.712123 0,0 2.05825,-1.861852 2.05825,-1.861852 v 0 c 0.13324,-0.237413 0.2686,-0.473609 0.44213,-0.684935 0.45089,-0.640929 0.85872,-1.314177 1.19968,-2.020162 0.14138,-0.289409 0.27531,-0.530122 0.3677,-0.838094 0.12352,-0.411745 0.069,-0.847027 0.0724,-1.269188 -0.008,-0.6785 -0.0114,-1.361345 -0.0782,-2.036225 -0.0929,-0.602713 -0.29599,-1.181061 -0.36595,-1.788758 -0.0982,-0.819918 -0.18141,-1.645166 -0.17491,-2.471791 -0.002,-0.859374 -0.0131,-1.723363 0.0767,-2.578838 0,0 -2.03075,2.030743 -2.03075,2.030743 z"
       id="path557"
       style="fill:#000000;stroke-width:0.264583" />
    <path
       d="m 138.67708,71.530053 c -0.11441,0.561893 -0.32075,1.093967 -0.54207,1.620467 0,0 1.94981,-1.808736 1.94981,-1.808736 v 0 c 0.21673,-0.592029 0.4204,-1.191536 0.69479,-1.760048 0,0 -2.10253,1.948317 -2.10253,1.948317 z"
       id="path559"
       style="fill:#000000;stroke-width:0.264583" />
  </g>
</svg>
