<?xml version="1.0" encoding="UTF-8" standalone="no"?>
<svg
   xmlns:dc="http://purl.org/dc/elements/1.1/"
   xmlns:cc="http://creativecommons.org/ns#"
   xmlns:rdf="http://www.w3.org/1999/02/22-rdf-syntax-ns#"
   xmlns:svg="http://www.w3.org/2000/svg"
   xmlns="http://www.w3.org/2000/svg"
   xmlns:sodipodi="http://sodipodi.sourceforge.net/DTD/sodipodi-0.dtd"
   xmlns:inkscape="http://www.inkscape.org/namespaces/inkscape"
   width="96.072685mm"
   height="109.32024mm"
   viewBox="0 0 96.072684 109.32024"
   version="1.1"
   id="svg8"
   inkscape:version="1.0 (4035a4f, 2020-05-01)"
   sodipodi:docname="bayesian-reasoning_6.svg"
   inkscape:export-filename="bayesian-reasoning_6.png"
   inkscape:export-xdpi="150"
   inkscape:export-ydpi="150">
  <defs
     id="defs2">
    <inkscape:path-effect
       end_linecap_type="round"
       scale_width="1"
       miter_limit="4"
       linejoin_type="spiro"
       start_linecap_type="round"
       interpolator_beta="0.75"
       interpolator_type="CentripetalCatmullRom"
       sort_points="true"
       offset_points="3.0186725,0.68899529"
       lpeversion="1"
       is_visible="true"
       id="path-effect802"
       effect="powerstroke" />
    <inkscape:path-effect
       step="1"
       simplify_just_coalesce="false"
       simplify_individual_paths="false"
       helper_size="0"
       smooth_angles="0"
       threshold="0.0032025118"
       steps="1"
       lpeversion="1"
       is_visible="true"
       id="path-effect800"
       effect="simplify" />
    <inkscape:path-effect
       end_linecap_type="round"
       scale_width="1"
       miter_limit="4"
       linejoin_type="spiro"
       start_linecap_type="round"
       interpolator_beta="0.75"
       interpolator_type="CentripetalCatmullRom"
       sort_points="true"
       offset_points="1.4030445,0.68899529"
       lpeversion="1"
       is_visible="true"
       id="path-effect793"
       effect="powerstroke" />
    <inkscape:path-effect
       step="1"
       simplify_just_coalesce="false"
       simplify_individual_paths="false"
       helper_size="0"
       smooth_angles="0"
       threshold="0.0032025118"
       steps="1"
       lpeversion="1"
       is_visible="true"
       id="path-effect791"
       effect="simplify" />
    <inkscape:path-effect
       end_linecap_type="round"
       scale_width="1"
       miter_limit="4"
       linejoin_type="spiro"
       start_linecap_type="round"
       interpolator_beta="0.75"
       interpolator_type="CentripetalCatmullRom"
       sort_points="true"
       offset_points="2.2297823,0.68899529"
       lpeversion="1"
       is_visible="true"
       id="path-effect786"
       effect="powerstroke" />
    <inkscape:path-effect
       step="1"
       simplify_just_coalesce="false"
       simplify_individual_paths="false"
       helper_size="0"
       smooth_angles="0"
       threshold="0.0032025118"
       steps="1"
       lpeversion="1"
       is_visible="true"
       id="path-effect784"
       effect="simplify" />
    <inkscape:path-effect
       end_linecap_type="round"
       scale_width="1"
       miter_limit="4"
       linejoin_type="spiro"
       start_linecap_type="round"
       interpolator_beta="0.75"
       interpolator_type="CentripetalCatmullRom"
       sort_points="true"
       offset_points="2.6650935,0.68899529"
       lpeversion="1"
       is_visible="true"
       id="path-effect777"
       effect="powerstroke" />
    <inkscape:path-effect
       step="1"
       simplify_just_coalesce="false"
       simplify_individual_paths="false"
       helper_size="0"
       smooth_angles="0"
       threshold="0.0032025118"
       steps="1"
       lpeversion="1"
       is_visible="true"
       id="path-effect775"
       effect="simplify" />
    <inkscape:path-effect
       end_linecap_type="round"
       scale_width="1"
       miter_limit="4"
       linejoin_type="spiro"
       start_linecap_type="round"
       interpolator_beta="0.75"
       interpolator_type="CentripetalCatmullRom"
       sort_points="true"
       offset_points="1.7855568,4.1339718"
       lpeversion="1"
       is_visible="true"
       id="path-effect766"
       effect="powerstroke" />
    <inkscape:path-effect
       step="1"
       simplify_just_coalesce="false"
       simplify_individual_paths="false"
       helper_size="0"
       smooth_angles="0"
       threshold="0.0032025118"
       steps="1"
       lpeversion="1"
       is_visible="true"
       id="path-effect764"
       effect="simplify" />
    <inkscape:path-effect
       end_linecap_type="round"
       scale_width="1"
       miter_limit="4"
       linejoin_type="spiro"
       start_linecap_type="round"
       interpolator_beta="0.75"
       interpolator_type="CentripetalCatmullRom"
       sort_points="true"
       offset_points="2.8142447,4.1339718"
       lpeversion="1"
       is_visible="true"
       id="path-effect759"
       effect="powerstroke" />
    <inkscape:path-effect
       step="1"
       simplify_just_coalesce="false"
       simplify_individual_paths="false"
       helper_size="0"
       smooth_angles="0"
       threshold="0.0032025118"
       steps="1"
       lpeversion="1"
       is_visible="true"
       id="path-effect757"
       effect="simplify" />
    <inkscape:path-effect
       end_linecap_type="round"
       scale_width="1"
       miter_limit="4"
       linejoin_type="spiro"
       start_linecap_type="round"
       interpolator_beta="0.75"
       interpolator_type="CentripetalCatmullRom"
       sort_points="true"
       offset_points="1.6172956,4.1339718"
       lpeversion="1"
       is_visible="true"
       id="path-effect752"
       effect="powerstroke" />
    <inkscape:path-effect
       step="1"
       simplify_just_coalesce="false"
       simplify_individual_paths="false"
       helper_size="0"
       smooth_angles="0"
       threshold="0.0032025118"
       steps="1"
       lpeversion="1"
       is_visible="true"
       id="path-effect750"
       effect="simplify" />
    <inkscape:path-effect
       end_linecap_type="round"
       scale_width="1"
       miter_limit="4"
       linejoin_type="spiro"
       start_linecap_type="round"
       interpolator_beta="0.75"
       interpolator_type="CentripetalCatmullRom"
       sort_points="true"
       offset_points="2.9621295,4.1339718"
       lpeversion="1"
       is_visible="true"
       id="path-effect745"
       effect="powerstroke" />
    <inkscape:path-effect
       step="1"
       simplify_just_coalesce="false"
       simplify_individual_paths="false"
       helper_size="0"
       smooth_angles="0"
       threshold="0.0032025118"
       steps="1"
       lpeversion="1"
       is_visible="true"
       id="path-effect743"
       effect="simplify" />
    <inkscape:path-effect
       end_linecap_type="round"
       scale_width="1"
       miter_limit="4"
       linejoin_type="spiro"
       start_linecap_type="round"
       interpolator_beta="0.75"
       interpolator_type="CentripetalCatmullRom"
       sort_points="true"
       offset_points="2.8980561,4.1339718"
       lpeversion="1"
       is_visible="true"
       id="path-effect738"
       effect="powerstroke" />
    <inkscape:path-effect
       step="1"
       simplify_just_coalesce="false"
       simplify_individual_paths="false"
       helper_size="0"
       smooth_angles="0"
       threshold="0.0032025118"
       steps="1"
       lpeversion="1"
       is_visible="true"
       id="path-effect736"
       effect="simplify" />
    <inkscape:path-effect
       end_linecap_type="round"
       scale_width="1"
       miter_limit="4"
       linejoin_type="spiro"
       start_linecap_type="round"
       interpolator_beta="0.75"
       interpolator_type="CentripetalCatmullRom"
       sort_points="true"
       offset_points="2.6788344,4.1431584"
       lpeversion="1"
       is_visible="true"
       id="path-effect731"
       effect="powerstroke" />
    <inkscape:path-effect
       step="1"
       simplify_just_coalesce="false"
       simplify_individual_paths="false"
       helper_size="0"
       smooth_angles="0"
       threshold="0.0032025118"
       steps="1"
       lpeversion="1"
       is_visible="true"
       id="path-effect729"
       effect="simplify" />
    <inkscape:path-effect
       end_linecap_type="round"
       scale_width="1"
       miter_limit="4"
       linejoin_type="spiro"
       start_linecap_type="round"
       interpolator_beta="0.75"
       interpolator_type="CentripetalCatmullRom"
       sort_points="true"
       offset_points="1.5319106,4.1799048"
       lpeversion="1"
       is_visible="true"
       id="path-effect724"
       effect="powerstroke" />
    <inkscape:path-effect
       step="1"
       simplify_just_coalesce="false"
       simplify_individual_paths="false"
       helper_size="0"
       smooth_angles="0"
       threshold="0.0032025118"
       steps="1"
       lpeversion="1"
       is_visible="true"
       id="path-effect722"
       effect="simplify" />
    <inkscape:path-effect
       end_linecap_type="round"
       scale_width="1"
       miter_limit="4"
       linejoin_type="spiro"
       start_linecap_type="round"
       interpolator_beta="0.75"
       interpolator_type="CentripetalCatmullRom"
       sort_points="true"
       offset_points="2.3257258,4.3177038"
       lpeversion="1"
       is_visible="true"
       id="path-effect717"
       effect="powerstroke" />
    <inkscape:path-effect
       step="1"
       simplify_just_coalesce="false"
       simplify_individual_paths="false"
       helper_size="0"
       smooth_angles="0"
       threshold="0.0032025118"
       steps="1"
       lpeversion="1"
       is_visible="true"
       id="path-effect715"
       effect="simplify" />
    <inkscape:path-effect
       end_linecap_type="round"
       scale_width="1"
       miter_limit="4"
       linejoin_type="spiro"
       start_linecap_type="round"
       interpolator_beta="0.75"
       interpolator_type="CentripetalCatmullRom"
       sort_points="true"
       offset_points="2.4547677,4.3177038"
       lpeversion="1"
       is_visible="true"
       id="path-effect710"
       effect="powerstroke" />
    <inkscape:path-effect
       step="1"
       simplify_just_coalesce="false"
       simplify_individual_paths="false"
       helper_size="0"
       smooth_angles="0"
       threshold="0.0032025118"
       steps="1"
       lpeversion="1"
       is_visible="true"
       id="path-effect708"
       effect="simplify" />
    <inkscape:path-effect
       simplify_just_coalesce="false"
       simplify_individual_paths="false"
       helper_size="0"
       smooth_angles="360"
       threshold="0.000408163"
       steps="1"
       lpeversion="1"
       is_visible="true"
       id="path-effect667"
       effect="simplify" />
    <inkscape:path-effect
       simplify_just_coalesce="false"
       simplify_individual_paths="false"
       helper_size="0"
       smooth_angles="360"
       threshold="0.000408163"
       steps="1"
       lpeversion="1"
       is_visible="true"
       id="path-effect663"
       effect="simplify" />
    <rect
       x="98.095116"
       y="30.305807"
       width="59.242321"
       height="55.867722"
       id="rect89" />
  </defs>
  <sodipodi:namedview
     id="base"
     pagecolor="#ffffff"
     bordercolor="#666666"
     borderopacity="1.0"
     inkscape:pageopacity="0.0"
     inkscape:pageshadow="2"
     inkscape:zoom="0.90003105"
     inkscape:cx="213.81"
     inkscape:cy="166.17974"
     inkscape:document-units="mm"
     inkscape:current-layer="layer1"
     inkscape:document-rotation="0"
     showgrid="false"
     inkscape:window-width="1280"
     inkscape:window-height="800"
     inkscape:window-x="0"
     inkscape:window-y="0"
     inkscape:window-maximized="0"
     fit-margin-top="10"
     fit-margin-left="10"
     fit-margin-right="10"
     fit-margin-bottom="10" />
  <metadata
     id="metadata5">
    <rdf:RDF>
      <cc:Work
         rdf:about="">
        <dc:format>image/svg+xml</dc:format>
        <dc:type
           rdf:resource="http://purl.org/dc/dcmitype/StillImage" />
        <dc:title></dc:title>
      </cc:Work>
    </rdf:RDF>
  </metadata>
  <g
     inkscape:label="Layer 1"
     inkscape:groupmode="layer"
     id="layer1"
     transform="translate(-123.578,4.028345)">
    <text
       xml:space="preserve"
       id="text87"
       style="font-style:normal;font-weight:normal;font-size:5.64444000000000035px;line-height:1.25;font-family:sans-serif;white-space:pre;shape-inside:url(#rect89);fill:#000000;fill-opacity:1;stroke:none;"
       transform="translate(53.964058,-25.050056)"><tspan
         x="98.095703"
         y="35.456235"><tspan
           style="font-style:normal;font-variant:normal;font-weight:normal;font-stretch:normal;font-family:'Comic Sans MS';-inkscape-font-specification:'Comic Sans MS'">So.. are you gonna tell </tspan></tspan><tspan
         x="98.095703"
         y="42.819092"><tspan
           style="font-style:normal;font-variant:normal;font-weight:normal;font-stretch:normal;font-family:'Comic Sans MS';-inkscape-font-specification:'Comic Sans MS'">me about this </tspan></tspan><tspan
         x="98.095703"
         y="50.18195"><tspan
           style="font-style:normal;font-variant:normal;font-weight:normal;font-stretch:normal;font-family:'Comic Sans MS';-inkscape-font-specification:'Comic Sans MS'">theorem or not?</tspan></tspan></text>
    <path
       style="fill:none;stroke:#000000;stroke-width:0.264583px;stroke-linecap:butt;stroke-linejoin:miter;stroke-opacity:1"
       d="m 167.92682,27.767927 c -2.61555,5.177496 -7.96951,7.616583 -14.10353,9.275604"
       id="path117"
       sodipodi:nodetypes="cc" />
    <path
       d="m 148.16061,36.307297 c -0.48433,-0.140359 -0.96485,-0.257816 -1.47008,-0.272524 -0.79046,0.05141 -1.54523,0.280697 -2.29437,0.521359 -1.11054,0.341135 -2.1474,0.86301 -3.12173,1.489149 -1.55725,1.220068 -2.91468,2.756773 -3.88672,4.481923 -0.54652,1.0698 -0.92593,2.202016 -1.07692,3.392903 -0.0701,0.786653 -0.0402,1.590428 0.13282,2.363549 0.0874,0.39049 0.21634,0.731144 0.3462,1.108059 0.54536,1.222031 1.31475,1.865842 2.45435,2.512669 1.38866,0.774824 2.95563,1.011192 4.50038,1.267454 0.77642,0.09433 1.55327,0.280787 2.34025,0.210204 0.38445,-0.03448 0.57684,-0.09073 0.95086,-0.175075 0.86729,-0.24189 1.73655,-0.53426 2.45067,-1.103551 0.17645,-0.140663 0.33363,-0.303937 0.50044,-0.455906 0.68126,-0.834324 1.39422,-1.643734 2.04378,-2.502971 0.15677,-0.207378 0.25851,-0.451819 0.36814,-0.687541 0.364,-0.782744 0.63545,-1.625825 0.76862,-2.479067 0.0451,-0.289356 0.0613,-0.582501 0.0919,-0.873752 0.0668,-1.518761 -0.0622,-3.034329 -0.43078,-4.508537 -0.20563,-0.748091 -0.59184,-1.404599 -1.12181,-1.96461 -0.43202,-0.390512 -0.93022,-0.701749 -1.40718,-1.034291 -0.39134,-0.267544 -0.71879,-0.612098 -1.10486,-0.88546 -0.21664,-0.179115 -0.46505,-0.303993 -0.73903,-0.363183 -0.18099,-0.03662 -0.36631,-0.03893 -0.55013,-0.04324 -0.12244,-0.0098 -0.2529,-0.07037 -0.37145,-0.112234 0,0 -1.76633,2.290326 -1.76633,2.290326 v 0 c 0.15393,0.03633 0.29896,0.08749 0.43723,0.165806 0.17368,-0.0063 0.34769,-0.01143 0.52137,-0.0013 0.24398,0.02582 0.46699,0.101611 0.66717,0.248767 0.3886,0.269378 0.77241,0.54446 1.15238,0.826299 0.46048,0.329025 0.92791,0.651865 1.35924,1.018752 0.51594,0.481446 0.8895,1.083696 1.13497,1.744776 0.44824,1.392478 0.58223,2.849319 0.48949,4.308798 -0.0355,0.284252 -0.0555,0.570862 -0.10643,0.852757 -0.15473,0.856395 -0.4512,1.691111 -0.85587,2.460953 -0.12425,0.236389 -0.61731,0.857975 -0.41212,0.687041 0.45122,-0.375915 0.77957,-0.878594 1.16936,-1.31789 -0.14898,0.147381 -0.28738,0.306277 -0.44693,0.442138 -0.67104,0.571396 -1.49579,0.869587 -2.33242,1.100576 -1.09614,0.292931 -2.20405,0.346507 -3.33179,0.189699 -1.52176,-0.187513 -3.01127,-0.531792 -4.36236,-1.287124 -1.02429,-0.621356 -1.80543,-1.304227 -2.28265,-2.43141 -0.37401,-1.093078 -0.56749,-2.2176 -0.40267,-3.37457 0.18518,-1.170413 0.57742,-2.287008 1.15349,-3.324989 0.48832,-0.785718 1.85544,-2.483607 -0.66366,0.598143 -0.1166,0.14264 0.25064,-0.270147 0.3797,-0.401614 0.43109,-0.439107 0.35828,-0.357986 0.83454,-0.750546 0.93929,-0.642143 1.94115,-1.195347 3.04321,-1.504907 0.7019,-0.21163 1.41733,-0.357963 2.14402,-0.455719 0.4649,-0.003 0.92798,0.09129 1.35325,0.283102 0,0 1.75043,-2.253112 1.75043,-2.253112 z"
       id="path505"
       style="fill:#000000;stroke-width:0.264583" />
    <path
       d="m 144.777,53.740918 c 0.058,1.155366 -0.0445,2.313768 -0.12699,3.465782 -0.15355,1.939076 -0.34129,3.875307 -0.49613,5.81419 -0.14005,2.461799 -0.39663,4.913243 -0.71723,7.357369 -0.31042,2.281232 -0.79747,4.532024 -1.27158,6.783242 -0.50955,2.384515 -1.05494,4.76187 -1.63468,7.13029 -0.48216,2.025285 -1.12158,4.005197 -1.87764,5.943412 -0.45787,1.223883 -1.07912,2.368667 -1.7735,3.471334 -0.29543,0.395107 -0.51893,0.841073 -0.81854,1.232302 2.24045,-2.812555 1.20219,-1.082805 0.73445,-1.028946 -0.24537,0.0071 -0.4909,-0.03162 -0.73571,-0.04929 -0.34609,-0.0085 -0.69152,-0.02939 -1.03724,-0.04694 -0.11727,-0.01273 -0.23484,-0.0016 -0.3518,-0.0176 -0.0121,-0.0016 -0.0453,-0.01347 -0.0361,-0.0054 0.0339,0.02965 0.0758,0.04881 0.11367,0.07321 -1.48937,1.761009 -1.1827,1.257951 -0.43604,0.912254 0.34096,-0.157863 0.68943,-0.301995 1.03445,-0.45072 0.3847,-0.157607 0.20258,-0.07997 0.54695,-0.23151 0,0 0.80693,-1.224878 0.80693,-1.224878 v 0 c -0.36054,0.195709 -0.1694,0.09901 -0.575,0.286959 -0.33346,0.144192 -0.66776,0.286284 -1.00836,0.413062 -0.0894,0.03328 -0.17967,0.06427 -0.26998,0.09505 -0.059,0.02011 -0.13499,0.01246 -0.17801,0.05761 -0.3857,0.404805 -0.72728,0.849461 -1.09092,1.274189 0.0365,0.03301 0.0674,0.07344 0.10937,0.09902 0.0204,0.01241 0.37201,-0.03905 0.41748,-0.02135 0.34831,-0.0096 0.69697,-0.01937 1.04428,0.0182 0.24116,0.02334 0.47628,0.05615 0.70721,0.123847 0.70225,0.0011 0.9503,-0.752602 1.3806,-1.318512 0.22206,-0.365127 0.42099,-0.744476 0.6581,-1.100717 0.61839,-1.05124 1.15481,-2.145813 1.55326,-3.301275 0.32728,-0.901096 0.65639,-1.802225 0.93484,-2.720025 0.24138,-0.795623 0.32909,-1.176414 0.5289,-1.990407 0.0911,-0.371269 0.18027,-0.743027 0.27041,-1.114539 0.57237,-2.381157 1.11747,-4.768572 1.65916,-7.156863 0.49605,-2.233932 0.95817,-4.476088 1.22701,-6.750941 0.31183,-2.47735 0.54585,-4.963097 0.80257,-7.446598 0.1769,-1.958832 0.39542,-3.913605 0.55631,-5.873898 0.11618,-1.27305 0.24186,-2.550086 0.49082,-3.805065 0,0 -1.14129,1.104199 -1.14129,1.104199 z"
       id="path609"
       style="fill:#000000;stroke-width:0.264583" />
    <path
       d="m 142.84432,73.847888 c 0.19779,0.823196 0.40577,1.64392 0.61851,2.463514 0.23045,0.908434 0.45679,1.819193 0.62139,2.742401 0.0883,0.495327 0.16517,1.080336 0.23471,1.578751 0.19949,1.45212 0.37913,2.906463 0.57242,4.359335 0.15775,1.117521 0.28646,2.238166 0.39594,3.361354 0.0647,0.71587 0.0911,1.434103 0.18236,2.147372 0.0757,0.723021 0.14192,1.447035 0.222,2.169596 0.0715,0.513154 0.0636,1.033082 0.12377,1.546863 0.0359,0.270592 0.0377,0.569619 0.17088,0.814898 0.0438,0.05003 0.0948,0.151276 0.16927,0.165185 0.13012,0.06164 0.27601,0.08048 0.41807,0.09275 0.31039,0.0209 0.6045,-0.127267 0.89105,-0.229187 0.20276,-0.07449 0.41069,-0.132945 0.61981,-0.186314 0.0352,-0.009 0.07,-0.01931 0.10567,-0.02611 0.0164,-0.0031 0.0407,0.01029 0.05,-0.0036 0.2897,-0.433782 0.55727,-0.881936 0.8359,-1.322903 -0.17657,0.02278 -0.35425,0.03575 -0.53203,0.04366 0,0 -0.90858,1.269987 -0.90858,1.269987 v 0 c 0.16525,-0.01667 0.33195,-0.0342 0.49817,-0.02506 0.32219,-0.439592 0.64311,-0.880116 0.96656,-1.318779 0.0139,-0.01889 -0.0192,0.04515 -0.0379,0.05932 -0.21199,0.16067 -0.52175,0.169545 -0.75817,0.272475 -0.4817,0.149434 0.0378,-0.0055 -0.39219,0.106075 -0.13039,0.03384 -0.25567,0.103105 -0.39391,0.08332 -0.11176,-0.0092 -0.2334,-0.01241 -0.33412,-0.06639 -0.0416,-0.03587 -0.0996,-0.03818 -0.13146,-0.09386 -0.12268,-0.21686 -0.13818,-0.473752 -0.18156,-0.714068 -0.05,-0.496789 -0.11176,-0.991274 -0.1847,-1.485487 -0.0836,-0.720376 -0.15175,-1.442498 -0.22585,-2.163882 -0.058,-0.707797 -0.10983,-1.417325 -0.21363,-2.120143 -0.1753,-1.08308 -0.33344,-2.168887 -0.50271,-3.25292 -0.19765,-1.439097 -0.41698,-2.875314 -0.61793,-4.314002 -0.22006,-1.48336 -0.45728,-2.964116 -0.7665,-4.431977 -0.20318,-0.860954 -0.4307,-1.737894 -0.40856,-2.628831 0,0 -1.10667,1.10667 -1.10667,1.10667 z"
       id="path613"
       style="fill:#000000;stroke-width:0.264583" />
    <path
       d="m 138.5002,63.275919 c 0.55326,-0.151175 1.07878,-0.404082 1.60547,-0.63028 0.87309,-0.39148 1.75526,-0.76101 2.65313,-1.091816 0.87896,-0.31872 1.77305,-0.593371 2.64693,-0.926058 0.62997,-0.264009 1.25781,-0.530971 1.90369,-0.753808 0.52333,-0.182052 1.05877,-0.326446 1.60258,-0.431835 0.25415,-0.04641 0.5082,-0.07588 0.76375,-0.03324 0.16675,0.02548 0.26093,0.142841 0.36299,0.266108 0.15793,0.234844 0.27448,0.490775 0.37834,0.75285 0.12582,0.315534 0.26125,0.626954 0.39075,0.940999 0.13539,0.473257 -0.44696,0.802463 0.81007,-0.837398 0.008,-0.0098 -0.0256,-7.94e-4 -0.0364,-0.0069 -0.0174,-0.0097 -0.18942,-0.13929 -0.18986,-0.139626 -0.24397,-0.178295 -0.49411,-0.347671 -0.72627,-0.541423 -0.0931,-0.08521 -0.20174,-0.154029 -0.31425,-0.210648 -0.0596,-0.0217 -0.12035,-0.04008 -0.18062,-0.05988 0,0 -0.7723,0.991174 -0.7723,0.991174 v 0 c 0.0546,0.02032 0.10647,0.04708 0.16297,0.06136 0.11059,0.04715 0.216,0.107936 0.32198,0.164367 0.25465,0.157294 0.49868,0.332004 0.72554,0.52756 0.20537,0.195736 -0.005,-0.0081 0.17336,0.172575 0.0268,0.02713 0.0547,0.106574 0.082,0.07993 0.95814,-0.933873 1.04815,-0.628986 0.76556,-1.098383 -0.15703,-0.294069 -0.28149,-0.604208 -0.40121,-0.914993 -0.0983,-0.280522 -0.21519,-0.557546 -0.37751,-0.807656 -0.11302,-0.157636 -0.22728,-0.298982 -0.42604,-0.341096 -0.28947,-0.0345 -0.56972,0.02334 -0.85264,0.08547 -0.55568,0.122491 -1.1026,0.282744 -1.64223,0.462817 -0.65531,0.235336 -1.2971,0.502084 -1.93211,0.78754 -0.88145,0.372753 -1.78386,0.691425 -2.69063,0.996749 -0.88008,0.321159 -1.7593,0.643861 -2.61493,1.026784 -0.46925,0.19045 -0.94849,0.391158 -1.44761,0.484116 0,0 -0.74447,1.024671 -0.74447,1.024671 z"
       id="path637"
       style="fill:#000000;stroke-width:0.264583" />
    <path
       d="m 145.09239,55.411611 c 0.20053,0.279368 0.37123,0.580326 0.53969,0.880043 0.23308,0.402241 0.4798,0.796219 0.71949,1.194552 0.27079,0.384664 0.52939,0.77737 0.79039,1.168672 0.29497,0.418367 0.56568,0.852139 0.83865,1.284846 0.19444,0.333923 0.35502,0.687298 0.48677,1.05034 0.11702,0.308457 0.25823,0.606465 0.38696,0.910043 0.13335,0.266697 0.26712,0.532532 0.3546,0.818345 0.0666,0.209818 0.0962,0.430287 0.15846,0.640684 0.003,0.0093 0.04,0.09547 0.0246,0.11957 -0.007,0.01019 -0.0431,0.01656 -0.0356,0.0071 0.25721,-0.323083 0.55332,-0.615942 0.78981,-0.954482 0.0207,-0.02961 -0.0711,-0.01397 -0.10537,-0.02532 -0.0573,-0.01894 -0.11264,-0.04356 -0.16896,-0.06533 -0.61527,-0.274981 -1.22502,-0.562303 -1.84673,-0.822558 -0.57529,-0.229764 -1.14604,-0.469111 -1.73404,-0.664908 -0.78,-0.228823 -1.58911,-0.332592 -2.38442,-0.494345 -0.70479,-0.175975 -1.40748,-0.365522 -2.102,-0.579123 -0.33895,-0.117051 -0.67178,-0.249587 -1.01277,-0.360891 -0.1797,-0.05053 -0.34656,-0.141809 -0.52909,-0.181499 -0.0289,0.0049 -0.0595,0.0037 -0.0867,0.01458 -0.032,0.01275 -0.0647,0.0291 -0.0876,0.05486 -0.65194,0.733988 -0.74204,0.811001 -1.10815,1.41465 -0.13549,0.222007 -0.27252,0.441603 -0.42789,0.650418 -0.0805,0.147166 -0.24451,0.260106 0.0637,0.289406 0.30181,-0.117578 0.58453,-0.281035 0.85998,-0.450302 0.16399,-0.09417 0.31446,-0.209249 0.48257,-0.296045 0,0 0.68596,-1.035772 0.68596,-1.035772 v 0 c -0.19233,0.08032 -0.34572,0.213656 -0.52074,0.324252 -0.24782,0.164978 -0.50628,0.316187 -0.78532,0.422486 -0.0118,0.04134 -0.0248,0.05296 0.0375,0.08601 0.002,7.94e-4 0.0994,-0.149569 0.1091,-0.164841 0.13563,-0.205391 0.26045,-0.417168 0.38935,-0.626785 0.0524,-0.0851 0.11586,-0.191672 0.17439,-0.272716 0.0316,-0.04383 0.13548,-0.168484 0.10011,-0.127596 -1.25478,1.450809 -0.89466,1.054381 -0.63301,0.739323 0.16118,-0.03836 0.37909,0.09328 0.5375,0.117919 0.35751,0.08993 0.7006,0.230167 1.0632,0.301578 0.72895,0.147344 1.44818,0.335611 2.17572,0.489466 0.77468,0.169074 1.55826,0.309962 2.30897,0.572071 0.58819,0.200121 1.17502,0.405154 1.75658,0.623758 0.61278,0.252749 1.22438,0.523079 1.76965,0.904838 0.05,0.03281 0.10006,0.06548 0.14995,0.09842 0.0358,0.02363 0.0745,0.09908 0.10712,0.07127 1.01469,-0.86419 1.05702,-0.563454 0.83733,-1.085744 -0.0634,-0.205708 -0.11065,-0.416645 -0.18351,-0.619755 -0.10313,-0.281157 -0.2329,-0.550505 -0.37048,-0.816351 -0.13307,-0.299029 -0.26575,-0.598074 -0.38851,-0.901446 -0.14879,-0.35896 -0.31133,-0.712702 -0.53071,-1.035208 -0.27101,-0.433832 -0.57532,-0.844931 -0.84584,-1.278999 -0.24931,-0.398872 -0.50037,-0.797372 -0.78145,-1.174954 -0.24766,-0.393408 -0.47752,-0.798499 -0.704,-1.204372 -0.17218,-0.310441 -0.35245,-0.617755 -0.48277,-0.948955 0,0 -0.84245,0.938805 -0.84245,0.938805 z"
       id="path639"
       style="fill:#000000;stroke-width:0.264583" />
    <path
       d="m 138.3539,63.594908 c 0.77572,-0.91364 1.58684,-1.803908 2.26229,-2.796135 0.31522,-0.543758 0.65488,-1.066736 1.02479,-1.574215 0.32381,-0.412906 1.81917,-2.314599 -0.9967,1.187236 -0.0801,0.09963 0.17335,-0.187976 0.26191,-0.280173 0.27045,-0.281538 0.55304,-0.551005 0.82635,-0.829752 0.52117,-0.503666 1.02882,-1.018672 1.52108,-1.550606 0.0786,-0.08974 0.1588,-0.178036 0.23568,-0.269211 0.55886,-0.662715 1.11841,-1.324885 1.67151,-1.99241 0.24853,-0.29994 0.431,-0.638371 0.69719,-0.924717 0,0 -1.79261,1.559177 -1.79261,1.559177 v 0 c -0.14629,0.200244 -0.27931,0.410085 -0.42768,0.60874 -0.0664,0.08896 -0.27837,0.345985 -0.20631,0.261511 0.56833,-0.666242 1.78351,-2.125861 1.00488,-1.191209 -0.49122,0.537212 -0.99064,1.064421 -1.52252,1.56202 -0.35069,0.37397 -0.75497,0.707282 -1.0894,1.095063 -0.56975,0.660643 -1.13024,1.329251 -1.6893,1.998959 -0.0766,0.09178 -0.14501,0.190132 -0.21751,0.2852 -0.374,0.519422 -0.69348,1.072115 -1.05232,1.601652 -0.59618,0.80895 -2.04782,2.53193 0.76738,-0.837792 0,0 -1.27871,2.086662 -1.27871,2.086662 z"
       id="path641"
       style="fill:#000000;stroke-width:0.264583" />
    <path
       id="path705"
       d="m 222.21456,219.99241 c -18.79492,2.88305 -36.63825,20.89922 -47.77613,35.55433 -4.9218,6.47605 -8.71236,27.52394 0,33.33218 1.87444,1.24963 4.41776,1.24736 6.66643,1.11108 22.44793,-1.36048 46.57675,-4.68605 64.44222,-19.99931 3.31759,-2.84365 14.2213,-46.88771 13.33288,-47.77613 -1.04753,-1.04753 -3.00709,0.3593 -4.44429,0 -27.77682,-4.4443 -32.22111,-2.22215 -32.22111,-2.22215 z"
       style="fill:#000000;stroke:none;stroke-opacity:1;stroke-linejoin:miter;stroke-linecap:butt;stroke-width:1px" />
    <path
       id="path781"
       d="m 206.65954,188.88237 c -11.88152,-2.59501 -16.86272,-3.13659 -25.55468,5.55537 -11.93601,11.93601 -23.99732,28.42311 -25.55467,45.55398 -0.16765,1.84418 -0.82815,3.89907 0,5.55536 9.63876,19.27752 38.89291,19.00266 55.55364,11.11073 2.92288,-1.38452 14.93748,-8.43555 17.77716,-12.2218 9.17708,-12.2361 8.7704,-35.67252 -2.22214,-46.66506 -7.35252,-7.35251 -26.66575,-9.99965 -19.99931,-8.88858 z"
       style="fill:#000000;stroke:none;stroke-opacity:1;stroke-linejoin:miter;stroke-linecap:butt;stroke-width:1px" />
  </g>
</svg>
